<?xml version="1.0" encoding="UTF-8"?>
<svg xmlns="http://www.w3.org/2000/svg" xmlns:xlink="http://www.w3.org/1999/xlink" width="150pt" height="150pt" viewBox="0 0 150 150" version="1.1">
<g id="surface1">
<path style=" stroke:none;fill-rule:nonzero;fill:rgb(85.882353%,5.098039%,8.235294%);fill-opacity:1;" d="M 127.28125 127.148438 L 124.59375 127.148438 C 124.078125 127.148438 123.851562 126.453125 124.253906 126.105469 L 125.023438 125.433594 C 125.683594 124.863281 126.503906 124.554688 127.34375 124.554688 L 130.03125 124.554688 C 130.546875 124.554688 130.773438 125.25 130.371094 125.601562 L 129.601562 126.265625 C 128.945312 126.839844 128.125 127.148438 127.28125 127.148438 "/>
<path style=" stroke:none;fill-rule:nonzero;fill:rgb(85.882353%,5.098039%,8.235294%);fill-opacity:1;" d="M 130.789062 123.375 L 128.105469 123.558594 C 127.59375 123.589844 127.320312 122.914062 127.695312 122.546875 L 128.421875 121.824219 C 129.035156 121.210938 129.828125 120.84375 130.671875 120.789062 L 133.351562 120.601562 C 133.863281 120.566406 134.140625 121.246094 133.765625 121.613281 L 133.046875 122.335938 C 132.429688 122.949219 131.636719 123.316406 130.789062 123.375 "/>
<path style=" stroke:none;fill-rule:nonzero;fill:rgb(85.882353%,5.098039%,8.235294%);fill-opacity:1;" d="M 134.035156 119.371094 L 131.371094 119.746094 C 130.859375 119.816406 130.539062 119.15625 130.890625 118.761719 L 131.558594 117.996094 C 132.136719 117.339844 132.898438 116.921875 133.734375 116.804688 L 136.398438 116.425781 C 136.910156 116.355469 137.230469 117.011719 136.886719 117.40625 L 136.214844 118.175781 C 135.636719 118.835938 134.871094 119.25 134.035156 119.371094 "/>
<path style=" stroke:none;fill-rule:nonzero;fill:rgb(85.882353%,5.098039%,8.235294%);fill-opacity:1;" d="M 136.984375 115.148438 L 134.355469 115.699219 C 133.855469 115.808594 133.484375 115.175781 133.804688 114.753906 L 134.421875 113.945312 C 134.945312 113.253906 135.683594 112.78125 136.511719 112.605469 L 139.140625 112.050781 C 139.644531 111.941406 140.011719 112.574219 139.695312 112.996094 L 139.074219 113.808594 C 138.546875 114.496094 137.808594 114.964844 136.984375 115.148438 "/>
<path style=" stroke:none;fill-rule:nonzero;fill:rgb(85.882353%,5.098039%,8.235294%);fill-opacity:1;" d="M 139.636719 110.726562 L 137.054688 111.464844 C 136.558594 111.605469 136.148438 111 136.433594 110.554688 L 136.996094 109.703125 C 137.464844 108.976562 138.175781 108.453125 138.980469 108.21875 L 141.566406 107.484375 C 142.058594 107.339844 142.476562 107.945312 142.183594 108.390625 L 141.625 109.246094 C 141.144531 109.96875 140.445312 110.496094 139.636719 110.726562 "/>
<path style=" stroke:none;fill-rule:nonzero;fill:rgb(85.882353%,5.098039%,8.235294%);fill-opacity:1;" d="M 141.96875 106.128906 L 139.449219 107.046875 C 138.964844 107.226562 138.515625 106.648438 138.769531 106.183594 L 139.265625 105.296875 C 139.691406 104.539062 140.351562 103.964844 141.144531 103.679688 L 143.664062 102.765625 C 144.15625 102.585938 144.601562 103.164062 144.351562 103.625 L 143.851562 104.515625 C 143.429688 105.273438 142.765625 105.84375 141.96875 106.128906 "/>
<path style=" stroke:none;fill-rule:nonzero;fill:rgb(85.882353%,5.098039%,8.235294%);fill-opacity:1;" d="M 143.980469 101.378906 L 141.523438 102.476562 C 141.054688 102.683594 140.566406 102.140625 140.789062 101.660156 L 141.226562 100.738281 C 141.59375 99.949219 142.214844 99.335938 142.988281 98.996094 L 145.441406 97.90625 C 145.910156 97.695312 146.40625 98.238281 146.175781 98.714844 L 145.738281 99.640625 C 145.371094 100.425781 144.75 101.039062 143.980469 101.378906 "/>
<path style=" stroke:none;fill-rule:nonzero;fill:rgb(85.882353%,5.098039%,8.235294%);fill-opacity:1;" d="M 145.65625 96.511719 L 143.28125 97.769531 C 142.828125 98.015625 142.300781 97.503906 142.488281 97.015625 L 142.855469 96.058594 C 143.175781 95.25 143.746094 94.589844 144.496094 94.195312 L 146.863281 92.933594 C 147.316406 92.691406 147.851562 93.199219 147.65625 93.695312 L 147.289062 94.644531 C 146.976562 95.453125 146.398438 96.113281 145.65625 96.511719 "/>
<path style=" stroke:none;fill-rule:nonzero;fill:rgb(85.882353%,5.098039%,8.235294%);fill-opacity:1;" d="M 146.984375 91.53125 L 144.703125 92.953125 C 144.269531 93.226562 143.710938 92.753906 143.859375 92.25 L 144.164062 91.273438 C 144.421875 90.445312 144.949219 89.746094 145.671875 89.300781 L 147.945312 87.878906 C 148.378906 87.605469 148.945312 88.070312 148.785156 88.578125 L 148.484375 89.550781 C 148.230469 90.390625 147.699219 91.085938 146.984375 91.53125 "/>
<path style=" stroke:none;fill-rule:nonzero;fill:rgb(85.882353%,5.098039%,8.235294%);fill-opacity:1;" d="M 147.960938 86.46875 L 145.785156 88.050781 C 145.371094 88.355469 144.773438 87.925781 144.894531 87.414062 L 145.128906 86.421875 C 145.324219 85.574219 145.808594 84.839844 146.488281 84.34375 L 148.664062 82.765625 C 149.078125 82.460938 149.671875 82.890625 149.554688 83.410156 L 149.320312 84.40625 C 149.125 85.246094 148.640625 85.976562 147.960938 86.46875 "/>
<path style=" stroke:none;fill-rule:nonzero;fill:rgb(85.882353%,5.098039%,8.235294%);fill-opacity:1;" d="M 148.585938 81.359375 L 146.53125 83.085938 C 146.128906 83.414062 145.511719 83.03125 145.59375 82.503906 L 145.753906 81.503906 C 145.890625 80.644531 146.320312 79.878906 146.964844 79.339844 L 149.023438 77.613281 C 149.425781 77.285156 150.046875 77.671875 149.953125 78.195312 L 149.800781 79.199219 C 149.660156 80.050781 149.230469 80.816406 148.585938 81.359375 "/>
<path style=" stroke:none;fill-rule:nonzero;fill:rgb(85.882353%,5.098039%,8.235294%);fill-opacity:1;" d="M 148.851562 76.210938 L 146.914062 78.078125 C 146.539062 78.433594 145.898438 78.09375 145.945312 77.570312 L 146.035156 76.554688 C 146.109375 75.691406 146.484375 74.894531 147.09375 74.308594 L 149.023438 72.445312 C 149.394531 72.089844 150.050781 72.429688 149.996094 72.960938 L 149.90625 73.976562 C 149.828125 74.828125 149.460938 75.625 148.851562 76.210938 "/>
<path style=" stroke:none;fill-rule:nonzero;fill:rgb(85.882353%,5.098039%,8.235294%);fill-opacity:1;" d="M 148.753906 71.054688 L 146.953125 73.050781 C 146.609375 73.433594 145.941406 73.140625 145.953125 72.609375 L 145.976562 71.585938 C 145.996094 70.714844 146.308594 69.90625 146.875 69.269531 L 148.671875 67.273438 C 149.015625 66.894531 149.691406 67.183594 149.675781 67.71875 L 149.65625 68.738281 C 149.636719 69.613281 149.316406 70.429688 148.753906 71.054688 "/>
<path style=" stroke:none;fill-rule:nonzero;fill:rgb(85.882353%,5.098039%,8.235294%);fill-opacity:1;" d="M 148.300781 65.925781 L 146.648438 68.035156 C 146.335938 68.449219 145.644531 68.199219 145.613281 67.671875 L 145.566406 66.644531 C 145.523438 65.78125 145.785156 64.945312 146.304688 64.28125 L 147.960938 62.164062 C 148.273438 61.761719 148.960938 62.003906 148.988281 62.535156 L 149.039062 63.554688 C 149.078125 64.425781 148.816406 65.261719 148.300781 65.925781 "/>
<path style=" stroke:none;fill-rule:nonzero;fill:rgb(85.882353%,5.098039%,8.235294%);fill-opacity:1;" d="M 147.488281 60.835938 L 145.984375 63.058594 C 145.695312 63.488281 144.988281 63.285156 144.925781 62.761719 L 144.804688 61.75 C 144.699219 60.886719 144.898438 60.035156 145.375 59.335938 L 146.878906 57.113281 C 147.171875 56.683594 147.871094 56.886719 147.933594 57.410156 L 148.058594 58.421875 C 148.160156 59.285156 147.953125 60.136719 147.488281 60.835938 "/>
<path style=" stroke:none;fill-rule:nonzero;fill:rgb(85.882353%,5.098039%,8.235294%);fill-opacity:1;" d="M 146.320312 55.820312 L 144.980469 58.140625 C 144.71875 58.585938 144 58.433594 143.90625 57.914062 L 143.710938 56.914062 C 143.550781 56.066406 143.691406 55.199219 144.109375 54.464844 L 145.449219 52.144531 C 145.703125 51.695312 146.425781 51.851562 146.523438 52.371094 L 146.714844 53.371094 C 146.886719 54.21875 146.738281 55.085938 146.320312 55.820312 "/>
<path style=" stroke:none;fill-rule:nonzero;fill:rgb(85.882353%,5.098039%,8.235294%);fill-opacity:1;" d="M 144.808594 50.886719 L 143.628906 53.304688 C 143.40625 53.761719 142.675781 53.664062 142.546875 53.148438 L 142.28125 52.164062 C 142.054688 51.324219 142.136719 50.449219 142.503906 49.695312 L 143.683594 47.285156 C 143.910156 46.820312 144.640625 46.925781 144.773438 47.429688 L 145.035156 48.414062 C 145.261719 49.253906 145.175781 50.128906 144.808594 50.886719 "/>
<path style=" stroke:none;fill-rule:nonzero;fill:rgb(85.882353%,5.098039%,8.235294%);fill-opacity:1;" d="M 142.960938 46.078125 L 141.953125 48.570312 C 141.761719 49.046875 141.03125 48.996094 140.863281 48.496094 L 140.53125 47.53125 C 140.246094 46.710938 140.265625 45.835938 140.578125 45.050781 L 141.585938 42.558594 C 141.78125 42.085938 142.515625 42.128906 142.675781 42.636719 L 143.011719 43.601562 C 143.289062 44.425781 143.269531 45.300781 142.960938 46.078125 "/>
<path style=" stroke:none;fill-rule:nonzero;fill:rgb(85.882353%,5.098039%,8.235294%);fill-opacity:1;" d="M 140.773438 41.410156 L 139.941406 43.964844 C 139.785156 44.453125 139.054688 44.453125 138.84375 43.96875 L 138.449219 43.03125 C 138.113281 42.230469 138.070312 41.355469 138.328125 40.554688 L 139.160156 38 C 139.320312 37.511719 140.050781 37.511719 140.253906 38 L 140.65625 38.933594 C 140.996094 39.734375 141.035156 40.609375 140.773438 41.410156 "/>
<path style=" stroke:none;fill-rule:nonzero;fill:rgb(85.882353%,5.098039%,8.235294%);fill-opacity:1;" d="M 138.269531 36.910156 L 137.621094 39.515625 C 137.496094 40.015625 136.765625 40.070312 136.523438 39.59375 L 136.058594 38.679688 C 135.664062 37.90625 135.570312 37.039062 135.769531 36.21875 L 136.421875 33.613281 C 136.546875 33.113281 137.273438 33.066406 137.515625 33.535156 L 137.976562 34.445312 C 138.371094 35.21875 138.46875 36.089844 138.269531 36.910156 "/>
<path style=" stroke:none;fill-rule:nonzero;fill:rgb(85.882353%,5.098039%,8.235294%);fill-opacity:1;" d="M 135.453125 32.589844 L 134.988281 35.234375 C 134.898438 35.746094 134.175781 35.84375 133.898438 35.390625 L 133.378906 34.515625 C 132.933594 33.765625 132.769531 32.90625 132.921875 32.074219 L 133.386719 29.429688 C 133.476562 28.925781 134.195312 28.824219 134.46875 29.273438 L 134.996094 30.148438 C 135.433594 30.898438 135.605469 31.761719 135.453125 32.589844 "/>
<path style=" stroke:none;fill-rule:nonzero;fill:rgb(85.882353%,5.098039%,8.235294%);fill-opacity:1;" d="M 132.351562 28.480469 L 132.070312 31.148438 C 132.019531 31.660156 131.300781 31.820312 131 31.378906 L 130.421875 30.546875 C 129.925781 29.828125 129.699219 28.984375 129.785156 28.144531 L 130.070312 25.476562 C 130.125 24.960938 130.839844 24.804688 131.140625 25.238281 L 131.726562 26.078125 C 132.214844 26.796875 132.433594 27.636719 132.351562 28.480469 "/>
<path style=" stroke:none;fill-rule:nonzero;fill:rgb(85.882353%,5.098039%,8.235294%);fill-opacity:1;" d="M 128.960938 24.589844 L 128.871094 27.273438 C 128.855469 27.789062 128.148438 27.988281 127.816406 27.578125 L 127.179688 26.785156 C 126.628906 26.105469 126.351562 25.28125 126.378906 24.433594 L 126.46875 21.75 C 126.488281 21.234375 127.191406 21.035156 127.523438 21.445312 L 128.164062 22.234375 C 128.710938 22.914062 128.996094 23.75 128.960938 24.589844 "/>
<path style=" stroke:none;fill-rule:nonzero;fill:rgb(85.882353%,5.098039%,8.235294%);fill-opacity:1;" d="M 125.316406 20.949219 L 125.40625 23.636719 C 125.425781 24.148438 124.734375 24.398438 124.378906 24.015625 L 123.683594 23.265625 C 123.09375 22.628906 122.753906 21.820312 122.726562 20.980469 L 122.628906 18.289062 C 122.613281 17.78125 123.304688 17.523438 123.671875 17.910156 L 124.359375 18.65625 C 124.945312 19.300781 125.285156 20.109375 125.316406 20.949219 "/>
<path style=" stroke:none;fill-rule:nonzero;fill:rgb(85.882353%,5.098039%,8.235294%);fill-opacity:1;" d="M 121.421875 17.574219 L 121.699219 20.246094 C 121.75 20.753906 121.085938 21.058594 120.699219 20.695312 L 119.953125 19.996094 C 119.320312 19.40625 118.929688 18.613281 118.839844 17.78125 L 118.558594 15.109375 C 118.503906 14.601562 119.175781 14.300781 119.558594 14.660156 L 120.304688 15.359375 C 120.941406 15.949219 121.328125 16.734375 121.421875 17.574219 "/>
<path style=" stroke:none;fill-rule:nonzero;fill:rgb(85.882353%,5.098039%,8.235294%);fill-opacity:1;" d="M 117.300781 14.476562 L 117.765625 17.121094 C 117.855469 17.628906 117.210938 17.96875 116.789062 17.636719 L 116.003906 17 C 115.335938 16.449219 114.886719 15.699219 114.734375 14.863281 L 114.269531 12.21875 C 114.179688 11.710938 114.824219 11.363281 115.234375 11.699219 L 116.03125 12.34375 C 116.703125 12.894531 117.15625 13.644531 117.300781 14.476562 "/>
<path style=" stroke:none;fill-rule:nonzero;fill:rgb(85.882353%,5.098039%,8.235294%);fill-opacity:1;" d="M 112.976562 11.675781 L 113.625 14.28125 C 113.75 14.773438 113.128906 15.171875 112.691406 14.859375 L 111.859375 14.269531 C 111.148438 13.773438 110.644531 13.050781 110.445312 12.234375 L 109.789062 9.628906 C 109.671875 9.125 110.285156 8.738281 110.726562 9.046875 L 111.554688 9.628906 C 112.265625 10.140625 112.769531 10.859375 112.976562 11.675781 "/>
<path style=" stroke:none;fill-rule:nonzero;fill:rgb(85.882353%,5.098039%,8.235294%);fill-opacity:1;" d="M 108.460938 9.179688 L 109.289062 11.734375 C 109.445312 12.226562 108.855469 12.660156 108.398438 12.386719 L 107.53125 11.855469 C 106.785156 11.40625 106.238281 10.726562 105.980469 9.921875 L 105.148438 7.363281 C 104.988281 6.875 105.578125 6.445312 106.035156 6.71875 L 106.90625 7.25 C 107.648438 7.695312 108.199219 8.375 108.460938 9.179688 "/>
<path style=" stroke:none;fill-rule:nonzero;fill:rgb(85.882353%,5.098039%,8.235294%);fill-opacity:1;" d="M 103.785156 7.011719 L 104.796875 9.496094 C 104.988281 9.976562 104.425781 10.445312 103.949219 10.203125 L 103.050781 9.738281 C 102.269531 9.34375 101.679688 8.699219 101.363281 7.914062 L 100.359375 5.425781 C 100.164062 4.945312 100.726562 4.476562 101.195312 4.714844 L 102.105469 5.183594 C 102.878906 5.578125 103.46875 6.226562 103.785156 7.011719 "/>
<path style=" stroke:none;fill-rule:nonzero;fill:rgb(85.882353%,5.098039%,8.235294%);fill-opacity:1;" d="M 98.96875 5.171875 L 100.148438 7.585938 C 100.375 8.046875 99.855469 8.554688 99.363281 8.351562 L 98.425781 7.945312 C 97.625 7.605469 96.984375 7.003906 96.621094 6.246094 L 95.441406 3.835938 C 95.214844 3.375 95.738281 2.863281 96.226562 3.070312 L 97.160156 3.476562 C 97.964844 3.808594 98.605469 4.410156 98.96875 5.171875 "/>
<path style=" stroke:none;fill-rule:nonzero;fill:rgb(85.882353%,5.098039%,8.235294%);fill-opacity:1;" d="M 94.039062 3.664062 L 95.386719 5.988281 C 95.640625 6.433594 95.15625 6.984375 94.648438 6.808594 L 93.691406 6.476562 C 92.863281 6.191406 92.191406 5.636719 91.769531 4.910156 L 90.425781 2.585938 C 90.164062 2.136719 90.660156 1.589844 91.160156 1.765625 L 92.121094 2.101562 C 92.941406 2.378906 93.621094 2.933594 94.039062 3.664062 "/>
<path style=" stroke:none;fill-rule:nonzero;fill:rgb(85.882353%,5.098039%,8.235294%);fill-opacity:1;" d="M 89.015625 2.511719 L 90.519531 4.734375 C 90.808594 5.171875 90.355469 5.746094 89.84375 5.605469 L 88.859375 5.339844 C 88.019531 5.109375 87.304688 4.605469 86.835938 3.910156 L 85.335938 1.683594 C 85.050781 1.261719 85.496094 0.679688 86.003906 0.816406 L 86.988281 1.085938 C 87.828125 1.308594 88.550781 1.808594 89.015625 2.511719 "/>
<path style=" stroke:none;fill-rule:nonzero;fill:rgb(85.882353%,5.098039%,8.235294%);fill-opacity:1;" d="M 83.921875 1.710938 L 85.574219 3.824219 C 85.890625 4.234375 85.484375 4.84375 84.964844 4.738281 L 83.964844 4.546875 C 83.109375 4.378906 82.359375 3.921875 81.84375 3.253906 L 80.195312 1.140625 C 79.875 0.738281 80.285156 0.128906 80.804688 0.230469 L 81.804688 0.429688 C 82.65625 0.589844 83.40625 1.046875 83.921875 1.710938 "/>
<path style=" stroke:none;fill-rule:nonzero;fill:rgb(85.882353%,5.098039%,8.235294%);fill-opacity:1;" d="M 78.789062 1.265625 L 80.585938 3.261719 C 80.929688 3.644531 80.566406 4.28125 80.035156 4.210938 L 79.03125 4.089844 C 78.160156 3.980469 77.386719 3.578125 76.820312 2.953125 L 75.019531 0.953125 C 74.679688 0.570312 75.039062 -0.0585938 75.570312 0.00390625 L 76.578125 0.128906 C 77.445312 0.234375 78.21875 0.640625 78.789062 1.265625 "/>
<path style=" stroke:none;fill-rule:nonzero;fill:rgb(85.882353%,5.098039%,8.235294%);fill-opacity:1;" d="M 73.636719 1.179688 L 75.570312 3.050781 C 75.933594 3.40625 75.621094 4.066406 75.085938 4.035156 L 74.070312 3.976562 C 73.199219 3.929688 72.398438 3.585938 71.789062 3 L 69.855469 1.136719 C 69.484375 0.78125 69.804688 0.113281 70.328125 0.144531 L 71.351562 0.203125 C 72.226562 0.25 73.03125 0.59375 73.636719 1.179688 "/>
<path style=" stroke:none;fill-rule:nonzero;fill:rgb(85.882353%,5.098039%,8.235294%);fill-opacity:1;" d="M 68.488281 1.453125 L 70.546875 3.183594 C 70.941406 3.511719 70.664062 4.191406 70.140625 4.199219 L 69.121094 4.214844 C 68.25 4.234375 67.425781 3.945312 66.78125 3.398438 L 64.71875 1.675781 C 64.320312 1.34375 64.59375 0.664062 65.125 0.660156 L 66.144531 0.644531 C 67.015625 0.628906 67.839844 0.914062 68.488281 1.453125 "/>
<path style=" stroke:none;fill-rule:nonzero;fill:rgb(85.882353%,5.098039%,8.235294%);fill-opacity:1;" d="M 63.375 2.09375 L 65.550781 3.671875 C 65.964844 3.96875 65.738281 4.671875 65.214844 4.714844 L 64.199219 4.800781 C 63.335938 4.875 62.484375 4.644531 61.804688 4.148438 L 59.636719 2.570312 C 59.21875 2.265625 59.441406 1.570312 59.96875 1.523438 L 60.984375 1.441406 C 61.84375 1.363281 62.691406 1.59375 63.375 2.09375 "/>
<path style=" stroke:none;fill-rule:nonzero;fill:rgb(85.882353%,5.098039%,8.235294%);fill-opacity:1;" d="M 58.308594 3.078125 L 60.589844 4.5 C 61.023438 4.773438 60.855469 5.484375 60.324219 5.570312 L 59.320312 5.726562 C 58.460938 5.859375 57.605469 5.691406 56.886719 5.238281 L 54.609375 3.820312 C 54.171875 3.546875 54.351562 2.835938 54.871094 2.75 L 55.875 2.59375 C 56.734375 2.460938 57.59375 2.628906 58.308594 3.078125 "/>
<path style=" stroke:none;fill-rule:nonzero;fill:rgb(85.882353%,5.098039%,8.235294%);fill-opacity:1;" d="M 53.335938 4.421875 L 55.710938 5.675781 C 56.160156 5.925781 56.039062 6.644531 55.519531 6.761719 L 54.523438 6.984375 C 53.675781 7.179688 52.804688 7.070312 52.066406 6.671875 L 49.691406 5.414062 C 49.234375 5.175781 49.359375 4.449219 49.878906 4.335938 L 50.875 4.101562 C 51.71875 3.910156 52.585938 4.019531 53.335938 4.421875 "/>
<path style=" stroke:none;fill-rule:nonzero;fill:rgb(85.882353%,5.098039%,8.235294%);fill-opacity:1;" d="M 48.460938 6.105469 L 50.914062 7.191406 C 51.386719 7.40625 51.316406 8.128906 50.804688 8.285156 L 49.824219 8.578125 C 48.996094 8.828125 48.121094 8.78125 47.351562 8.441406 L 44.898438 7.351562 C 44.429688 7.136719 44.5 6.410156 45.011719 6.253906 L 45.984375 5.960938 C 46.816406 5.710938 47.691406 5.761719 48.460938 6.105469 "/>
<path style=" stroke:none;fill-rule:nonzero;fill:rgb(85.882353%,5.098039%,8.235294%);fill-opacity:1;" d="M 43.714844 8.113281 L 46.238281 9.035156 C 46.726562 9.214844 46.703125 9.945312 46.203125 10.128906 L 45.25 10.488281 C 44.445312 10.800781 43.558594 10.816406 42.769531 10.523438 L 40.25 9.609375 C 39.769531 9.429688 39.789062 8.695312 40.285156 8.511719 L 41.238281 8.148438 C 42.046875 7.839844 42.925781 7.828125 43.714844 8.113281 "/>
<path style=" stroke:none;fill-rule:nonzero;fill:rgb(85.882353%,5.098039%,8.235294%);fill-opacity:1;" d="M 39.128906 10.464844 L 41.710938 11.203125 C 42.203125 11.34375 42.234375 12.078125 41.753906 12.300781 L 40.824219 12.726562 C 40.035156 13.089844 39.160156 13.164062 38.355469 12.933594 L 35.769531 12.195312 C 35.28125 12.050781 35.25 11.320312 35.730469 11.101562 L 36.65625 10.675781 C 37.441406 10.300781 38.316406 10.230469 39.128906 10.464844 "/>
<path style=" stroke:none;fill-rule:nonzero;fill:rgb(85.882353%,5.098039%,8.235294%);fill-opacity:1;" d="M 34.710938 13.121094 L 37.339844 13.679688 C 37.84375 13.789062 37.921875 14.511719 37.453125 14.769531 L 36.566406 15.261719 C 35.804688 15.679688 34.941406 15.808594 34.113281 15.640625 L 31.484375 15.078125 C 30.980469 14.976562 30.898438 14.246094 31.363281 13.988281 L 32.265625 13.5 C 33.019531 13.078125 33.886719 12.949219 34.710938 13.121094 "/>
<path style=" stroke:none;fill-rule:nonzero;fill:rgb(85.882353%,5.098039%,8.235294%);fill-opacity:1;" d="M 30.488281 16.085938 L 33.148438 16.460938 C 33.660156 16.535156 33.796875 17.25 33.34375 17.539062 L 32.484375 18.09375 C 31.753906 18.570312 30.898438 18.765625 30.070312 18.640625 L 27.40625 18.269531 C 26.894531 18.199219 26.769531 17.476562 27.210938 17.191406 L 28.066406 16.636719 C 28.800781 16.15625 29.65625 15.964844 30.488281 16.085938 "/>
<path style=" stroke:none;fill-rule:nonzero;fill:rgb(85.882353%,5.098039%,8.235294%);fill-opacity:1;" d="M 26.488281 19.328125 L 29.171875 19.515625 C 29.683594 19.546875 29.863281 20.261719 29.441406 20.578125 L 28.621094 21.183594 C 27.929688 21.710938 27.085938 21.960938 26.246094 21.898438 L 23.566406 21.714844 C 23.050781 21.679688 22.871094 20.96875 23.296875 20.648438 L 24.109375 20.035156 C 24.804688 19.519531 25.644531 19.269531 26.488281 19.328125 "/>
<path style=" stroke:none;fill-rule:nonzero;fill:rgb(85.882353%,5.098039%,8.235294%);fill-opacity:1;" d="M 22.71875 22.84375 L 25.410156 22.84375 C 25.921875 22.84375 26.15625 23.546875 25.75 23.890625 L 24.980469 24.554688 C 24.320312 25.125 23.503906 25.433594 22.660156 25.433594 L 19.976562 25.433594 C 19.460938 25.433594 19.226562 24.734375 19.628906 24.390625 L 20.398438 23.726562 C 21.054688 23.160156 21.875 22.84375 22.71875 22.84375 "/>
<path style=" stroke:none;fill-rule:nonzero;fill:rgb(85.882353%,5.098039%,8.235294%);fill-opacity:1;" d="M 19.210938 26.621094 L 21.890625 26.433594 C 22.398438 26.398438 22.679688 27.078125 22.304688 27.449219 L 21.574219 28.171875 C 20.960938 28.78125 20.164062 29.148438 19.324219 29.203125 L 16.644531 29.394531 C 16.128906 29.429688 15.855469 28.75 16.230469 28.375 L 16.949219 27.660156 C 17.570312 27.046875 18.363281 26.679688 19.210938 26.621094 "/>
<path style=" stroke:none;fill-rule:nonzero;fill:rgb(85.882353%,5.098039%,8.235294%);fill-opacity:1;" d="M 15.96875 30.625 L 18.628906 30.253906 C 19.140625 30.183594 19.460938 30.84375 19.109375 31.238281 L 18.441406 32.011719 C 17.863281 32.664062 17.101562 33.085938 16.265625 33.199219 L 13.605469 33.578125 C 13.09375 33.648438 12.769531 32.996094 13.113281 32.589844 L 13.785156 31.824219 C 14.363281 31.164062 15.128906 30.738281 15.96875 30.625 "/>
<path style=" stroke:none;fill-rule:nonzero;fill:rgb(85.882353%,5.098039%,8.235294%);fill-opacity:1;" d="M 13.015625 34.851562 L 15.640625 34.296875 C 16.144531 34.191406 16.515625 34.820312 16.191406 35.246094 L 15.574219 36.054688 C 15.050781 36.746094 14.308594 37.21875 13.484375 37.394531 L 10.859375 37.949219 C 10.355469 38.058594 9.988281 37.425781 10.308594 37.003906 L 10.929688 36.195312 C 11.453125 35.5 12.195312 35.023438 13.015625 34.851562 "/>
<path style=" stroke:none;fill-rule:nonzero;fill:rgb(85.882353%,5.098039%,8.235294%);fill-opacity:1;" d="M 10.363281 39.269531 L 12.949219 38.523438 C 13.445312 38.386719 13.855469 38.996094 13.570312 39.433594 L 13.011719 40.289062 C 12.535156 41.019531 11.835938 41.546875 11.019531 41.78125 L 8.441406 42.519531 C 7.949219 42.664062 7.535156 42.054688 7.820312 41.609375 L 8.378906 40.753906 C 8.851562 40.03125 9.554688 39.503906 10.363281 39.269531 "/>
<path style=" stroke:none;fill-rule:nonzero;fill:rgb(85.882353%,5.098039%,8.235294%);fill-opacity:1;" d="M 8.03125 43.863281 L 10.554688 42.949219 C 11.039062 42.769531 11.488281 43.351562 11.230469 43.808594 L 10.734375 44.699219 C 10.308594 45.460938 9.648438 46.035156 8.855469 46.316406 L 6.328125 47.234375 C 5.84375 47.410156 5.394531 46.835938 5.648438 46.371094 L 6.148438 45.480469 C 6.574219 44.726562 7.238281 44.148438 8.03125 43.863281 "/>
<path style=" stroke:none;fill-rule:nonzero;fill:rgb(85.882353%,5.098039%,8.235294%);fill-opacity:1;" d="M 6.019531 48.609375 L 8.46875 47.519531 C 8.941406 47.308594 9.429688 47.851562 9.203125 48.335938 L 8.769531 49.253906 C 8.398438 50.046875 7.78125 50.660156 7.011719 51 L 4.554688 52.089844 C 4.085938 52.296875 3.59375 51.753906 3.820312 51.273438 L 4.25 50.355469 C 4.628906 49.570312 5.25 48.953125 6.019531 48.609375 "/>
<path style=" stroke:none;fill-rule:nonzero;fill:rgb(85.882353%,5.098039%,8.235294%);fill-opacity:1;" d="M 4.34375 53.484375 L 6.71875 52.226562 C 7.171875 51.980469 7.703125 52.488281 7.511719 52.980469 L 7.140625 53.933594 C 6.824219 54.738281 6.25 55.40625 5.5 55.796875 L 3.128906 57.058594 C 2.675781 57.304688 2.144531 56.796875 2.339844 56.304688 L 2.699219 55.351562 C 3.023438 54.539062 3.605469 53.886719 4.34375 53.484375 "/>
<path style=" stroke:none;fill-rule:nonzero;fill:rgb(85.882353%,5.098039%,8.235294%);fill-opacity:1;" d="M 3.019531 58.464844 L 5.296875 57.039062 C 5.730469 56.769531 6.296875 57.238281 6.140625 57.746094 L 5.839844 58.71875 C 5.578125 59.550781 5.050781 60.246094 4.335938 60.695312 L 2.054688 62.113281 C 1.621094 62.390625 1.054688 61.925781 1.214844 61.414062 L 1.511719 60.445312 C 1.769531 59.605469 2.304688 58.914062 3.019531 58.464844 "/>
<path style=" stroke:none;fill-rule:nonzero;fill:rgb(85.882353%,5.098039%,8.235294%);fill-opacity:1;" d="M 2.039062 63.523438 L 4.214844 61.945312 C 4.628906 61.644531 5.226562 62.074219 5.105469 62.589844 L 4.871094 63.585938 C 4.671875 64.429688 4.191406 65.164062 3.511719 65.660156 L 1.339844 67.238281 C 0.925781 67.546875 0.328125 67.113281 0.449219 66.601562 L 0.679688 65.605469 C 0.878906 64.753906 1.359375 64.023438 2.039062 63.523438 "/>
<path style=" stroke:none;fill-rule:nonzero;fill:rgb(85.882353%,5.098039%,8.235294%);fill-opacity:1;" d="M 1.414062 68.640625 L 3.476562 66.914062 C 3.871094 66.585938 4.496094 66.976562 4.410156 67.496094 L 4.246094 68.5 C 4.109375 69.359375 3.679688 70.125 3.035156 70.664062 L 0.976562 72.390625 C 0.578125 72.71875 -0.0390625 72.339844 0.046875 71.816406 L 0.203125 70.808594 C 0.339844 69.945312 0.769531 69.179688 1.414062 68.640625 "/>
<path style=" stroke:none;fill-rule:nonzero;fill:rgb(85.882353%,5.098039%,8.235294%);fill-opacity:1;" d="M 1.15625 73.789062 L 3.085938 71.921875 C 3.453125 71.566406 4.105469 71.910156 4.054688 72.433594 L 3.964844 73.449219 C 3.886719 74.316406 3.511719 75.105469 2.90625 75.695312 L 0.96875 77.558594 C 0.601562 77.914062 -0.0507812 77.574219 0.00390625 77.050781 L 0.09375 76.035156 C 0.171875 75.164062 0.539062 74.371094 1.15625 73.789062 "/>
<path style=" stroke:none;fill-rule:nonzero;fill:rgb(85.882353%,5.098039%,8.235294%);fill-opacity:1;" d="M 1.246094 78.941406 L 3.046875 76.945312 C 3.390625 76.566406 4.054688 76.855469 4.050781 77.386719 L 4.023438 78.410156 C 4.011719 79.273438 3.691406 80.089844 3.125 80.71875 L 1.328125 82.71875 C 0.984375 83.101562 0.316406 82.804688 0.324219 82.273438 L 0.34375 81.253906 C 0.363281 80.378906 0.679688 79.566406 1.246094 78.941406 "/>
<path style=" stroke:none;fill-rule:nonzero;fill:rgb(85.882353%,5.098039%,8.235294%);fill-opacity:1;" d="M 1.703125 84.070312 L 3.355469 81.953125 C 3.675781 81.550781 4.359375 81.800781 4.390625 82.324219 L 4.445312 83.351562 C 4.484375 84.214844 4.226562 85.050781 3.703125 85.714844 L 2.050781 87.828125 C 1.734375 88.234375 1.046875 87.984375 1.015625 87.453125 L 0.964844 86.433594 C 0.925781 85.574219 1.183594 84.730469 1.703125 84.070312 "/>
<path style=" stroke:none;fill-rule:nonzero;fill:rgb(85.882353%,5.098039%,8.235294%);fill-opacity:1;" d="M 2.515625 89.164062 L 4.015625 86.941406 C 4.300781 86.511719 5.011719 86.710938 5.070312 87.234375 L 5.195312 88.25 C 5.296875 89.109375 5.09375 89.960938 4.625 90.660156 L 3.121094 92.886719 C 2.835938 93.316406 2.125 93.109375 2.066406 92.585938 L 1.945312 91.574219 C 1.839844 90.714844 2.046875 89.859375 2.515625 89.164062 "/>
<path style=" stroke:none;fill-rule:nonzero;fill:rgb(85.882353%,5.098039%,8.235294%);fill-opacity:1;" d="M 3.679688 94.179688 L 5.019531 91.855469 C 5.28125 91.410156 6 91.566406 6.09375 92.078125 L 6.289062 93.078125 C 6.449219 93.929688 6.308594 94.796875 5.886719 95.53125 L 4.546875 97.855469 C 4.285156 98.300781 3.570312 98.148438 3.46875 97.628906 L 3.28125 96.628906 C 3.113281 95.78125 3.261719 94.910156 3.679688 94.179688 "/>
<path style=" stroke:none;fill-rule:nonzero;fill:rgb(85.882353%,5.098039%,8.235294%);fill-opacity:1;" d="M 5.195312 99.109375 L 6.375 96.691406 C 6.601562 96.234375 7.324219 96.335938 7.460938 96.84375 L 7.71875 97.828125 C 7.949219 98.671875 7.863281 99.539062 7.496094 100.300781 L 6.316406 102.710938 C 6.089844 103.175781 5.359375 103.070312 5.226562 102.558594 L 4.964844 101.574219 C 4.738281 100.738281 4.820312 99.871094 5.195312 99.109375 "/>
<path style=" stroke:none;fill-rule:nonzero;fill:rgb(85.882353%,5.098039%,8.235294%);fill-opacity:1;" d="M 7.046875 103.921875 L 8.050781 101.429688 C 8.246094 100.949219 8.976562 101 9.144531 101.503906 L 9.476562 102.46875 C 9.753906 103.296875 9.734375 104.164062 9.421875 104.949219 L 8.414062 107.433594 C 8.226562 107.914062 7.488281 107.863281 7.324219 107.363281 L 6.988281 106.398438 C 6.710938 105.574219 6.730469 104.699219 7.046875 103.921875 "/>
<path style=" stroke:none;fill-rule:nonzero;fill:rgb(85.882353%,5.098039%,8.235294%);fill-opacity:1;" d="M 9.226562 108.585938 L 10.054688 106.035156 C 10.210938 105.539062 10.945312 105.539062 11.148438 106.03125 L 11.546875 106.96875 C 11.878906 107.765625 11.925781 108.644531 11.664062 109.445312 L 10.839844 112 C 10.679688 112.488281 9.949219 112.488281 9.746094 112.003906 L 9.351562 111.066406 C 9.011719 110.261719 8.96875 109.390625 9.226562 108.585938 "/>
<path style=" stroke:none;fill-rule:nonzero;fill:rgb(85.882353%,5.098039%,8.235294%);fill-opacity:1;" d="M 11.730469 113.089844 L 12.378906 110.484375 C 12.5 109.980469 13.238281 109.929688 13.476562 110.40625 L 13.941406 111.308594 C 14.328125 112.089844 14.429688 112.953125 14.230469 113.773438 L 13.574219 116.378906 C 13.449219 116.875 12.726562 116.929688 12.484375 116.453125 L 12.023438 115.546875 C 11.636719 114.78125 11.53125 113.90625 11.730469 113.089844 "/>
<path style=" stroke:none;fill-rule:nonzero;fill:rgb(85.882353%,5.098039%,8.235294%);fill-opacity:1;" d="M 14.539062 117.40625 L 15.003906 114.761719 C 15.09375 114.25 15.816406 114.148438 16.09375 114.605469 L 16.621094 115.480469 C 17.066406 116.226562 17.226562 117.089844 17.078125 117.914062 L 16.613281 120.558594 C 16.523438 121.070312 15.800781 121.171875 15.523438 120.71875 L 15.003906 119.84375 C 14.566406 119.09375 14.398438 118.238281 14.539062 117.40625 "/>
<path style=" stroke:none;fill-rule:nonzero;fill:rgb(85.882353%,5.098039%,8.235294%);fill-opacity:1;" d="M 17.648438 121.519531 L 17.933594 118.851562 C 17.988281 118.339844 18.699219 118.179688 19.011719 118.613281 L 19.589844 119.453125 C 20.089844 120.171875 20.308594 121.015625 20.21875 121.855469 L 19.941406 124.523438 C 19.890625 125.035156 19.171875 125.191406 18.871094 124.753906 L 18.289062 123.921875 C 17.785156 123.203125 17.558594 122.355469 17.648438 121.519531 "/>
<path style=" stroke:none;fill-rule:nonzero;fill:rgb(85.882353%,5.098039%,8.235294%);fill-opacity:1;" d="M 21.035156 125.410156 L 21.128906 122.726562 C 21.148438 122.210938 21.851562 122.003906 22.179688 122.421875 L 22.824219 123.214844 C 23.371094 123.890625 23.648438 124.71875 23.621094 125.566406 L 23.53125 128.25 C 23.515625 128.761719 22.808594 128.964844 22.480469 128.554688 L 21.839844 127.761719 C 21.289062 127.074219 21.011719 126.25 21.035156 125.410156 "/>
<path style=" stroke:none;fill-rule:nonzero;fill:rgb(85.882353%,5.098039%,8.235294%);fill-opacity:1;" d="M 24.683594 129.050781 L 24.589844 126.363281 C 24.578125 125.851562 25.261719 125.601562 25.621094 125.984375 L 26.316406 126.730469 C 26.90625 127.363281 27.246094 128.175781 27.273438 129.015625 L 27.363281 131.699219 C 27.378906 132.214844 26.695312 132.46875 26.328125 132.078125 L 25.640625 131.335938 C 25.054688 130.695312 24.714844 129.886719 24.683594 129.050781 "/>
<path style=" stroke:none;fill-rule:nonzero;fill:rgb(85.882353%,5.098039%,8.235294%);fill-opacity:1;" d="M 28.578125 132.425781 L 28.300781 129.753906 C 28.246094 129.246094 28.910156 128.941406 29.300781 129.304688 L 30.046875 130.003906 C 30.679688 130.59375 31.070312 131.378906 31.160156 132.21875 L 31.445312 134.890625 C 31.496094 135.398438 30.828125 135.695312 30.445312 135.335938 L 29.695312 134.636719 C 29.058594 134.046875 28.671875 133.261719 28.578125 132.425781 "/>
<path style=" stroke:none;fill-rule:nonzero;fill:rgb(85.882353%,5.098039%,8.235294%);fill-opacity:1;" d="M 32.699219 135.519531 L 32.230469 132.875 C 32.144531 132.363281 32.785156 132.019531 33.199219 132.359375 L 33.988281 133 C 34.660156 133.550781 35.105469 134.304688 35.253906 135.136719 L 35.726562 137.78125 C 35.816406 138.289062 35.171875 138.628906 34.761719 138.300781 L 33.964844 137.65625 C 33.296875 137.101562 32.84375 136.355469 32.699219 135.519531 "/>
<path style=" stroke:none;fill-rule:nonzero;fill:rgb(85.882353%,5.098039%,8.235294%);fill-opacity:1;" d="M 37.03125 138.320312 L 36.378906 135.714844 C 36.253906 135.21875 36.878906 134.824219 37.316406 135.136719 L 38.144531 135.71875 C 38.855469 136.21875 39.355469 136.941406 39.554688 137.761719 L 40.210938 140.363281 C 40.335938 140.863281 39.714844 141.253906 39.28125 140.945312 L 38.445312 140.363281 C 37.730469 139.859375 37.230469 139.144531 37.03125 138.320312 "/>
<path style=" stroke:none;fill-rule:nonzero;fill:rgb(85.882353%,5.098039%,8.235294%);fill-opacity:1;" d="M 41.539062 140.816406 L 40.710938 138.261719 C 40.554688 137.769531 41.140625 137.339844 41.59375 137.613281 L 42.46875 138.144531 C 43.210938 138.59375 43.761719 139.273438 44.019531 140.074219 L 44.851562 142.636719 C 45.011719 143.121094 44.414062 143.554688 43.960938 143.285156 L 43.089844 142.75 C 42.351562 142.300781 41.800781 141.621094 41.539062 140.816406 "/>
<path style=" stroke:none;fill-rule:nonzero;fill:rgb(85.882353%,5.098039%,8.235294%);fill-opacity:1;" d="M 46.214844 142.984375 L 45.203125 140.5 C 45.011719 140.019531 45.570312 139.550781 46.046875 139.789062 L 46.949219 140.253906 C 47.730469 140.648438 48.324219 141.296875 48.636719 142.078125 L 49.640625 144.570312 C 49.839844 145.050781 49.28125 145.519531 48.804688 145.28125 L 47.894531 144.808594 C 47.121094 144.414062 46.53125 143.769531 46.214844 142.984375 "/>
<path style=" stroke:none;fill-rule:nonzero;fill:rgb(85.882353%,5.098039%,8.235294%);fill-opacity:1;" d="M 51.03125 144.828125 L 49.855469 142.414062 C 49.625 141.953125 50.148438 141.441406 50.640625 141.648438 L 51.574219 142.050781 C 52.375 142.394531 53.015625 142.996094 53.386719 143.75 L 54.558594 146.164062 C 54.785156 146.628906 54.261719 147.136719 53.773438 146.929688 L 52.839844 146.53125 C 52.035156 146.183594 51.394531 145.589844 51.03125 144.828125 "/>
<path style=" stroke:none;fill-rule:nonzero;fill:rgb(85.882353%,5.098039%,8.235294%);fill-opacity:1;" d="M 55.960938 146.328125 L 54.621094 144.003906 C 54.359375 143.554688 54.84375 143.015625 55.351562 143.191406 L 56.308594 143.523438 C 57.136719 143.808594 57.808594 144.363281 58.230469 145.09375 L 59.574219 147.421875 C 59.835938 147.871094 59.34375 148.414062 58.839844 148.238281 L 57.886719 147.90625 C 57.058594 147.613281 56.378906 147.058594 55.960938 146.328125 "/>
<path style=" stroke:none;fill-rule:nonzero;fill:rgb(85.882353%,5.098039%,8.235294%);fill-opacity:1;" d="M 60.984375 147.480469 L 59.480469 145.261719 C 59.191406 144.828125 59.644531 144.253906 60.15625 144.390625 L 61.136719 144.65625 C 61.976562 144.878906 62.691406 145.390625 63.164062 146.089844 L 64.664062 148.316406 C 64.953125 148.738281 64.503906 149.320312 63.988281 149.183594 L 63.003906 148.921875 C 62.164062 148.691406 61.453125 148.183594 60.984375 147.480469 "/>
<path style=" stroke:none;fill-rule:nonzero;fill:rgb(85.882353%,5.098039%,8.235294%);fill-opacity:1;" d="M 66.074219 148.285156 L 64.425781 146.171875 C 64.105469 145.765625 64.515625 145.15625 65.03125 145.253906 L 66.03125 145.453125 C 66.886719 145.621094 67.636719 146.078125 68.148438 146.738281 L 69.804688 148.855469 C 70.121094 149.261719 69.714844 149.871094 69.195312 149.769531 L 68.195312 149.570312 C 67.339844 149.40625 66.59375 148.953125 66.074219 148.285156 "/>
<path style=" stroke:none;fill-rule:nonzero;fill:rgb(85.882353%,5.098039%,8.235294%);fill-opacity:1;" d="M 71.210938 148.730469 L 69.414062 146.734375 C 69.070312 146.351562 69.433594 145.714844 69.960938 145.78125 L 70.96875 145.90625 C 71.835938 146.011719 72.609375 146.414062 73.175781 147.046875 L 74.976562 149.039062 C 75.316406 149.425781 74.953125 150.058594 74.425781 149.996094 L 73.414062 149.863281 C 72.554688 149.753906 71.773438 149.359375 71.210938 148.730469 "/>
<path style=" stroke:none;fill-rule:nonzero;fill:rgb(85.882353%,5.098039%,8.235294%);fill-opacity:1;" d="M 76.363281 148.816406 L 74.433594 146.945312 C 74.066406 146.589844 74.378906 145.933594 74.914062 145.960938 L 75.929688 146.019531 C 76.800781 146.066406 77.605469 146.410156 78.210938 146.996094 L 80.140625 148.863281 C 80.511719 149.21875 80.195312 149.878906 79.664062 149.851562 L 78.644531 149.796875 C 77.773438 149.746094 76.96875 149.398438 76.363281 148.816406 "/>
<path style=" stroke:none;fill-rule:nonzero;fill:rgb(85.882353%,5.098039%,8.235294%);fill-opacity:1;" d="M 81.515625 148.539062 L 79.460938 146.808594 C 79.066406 146.480469 79.335938 145.804688 79.863281 145.796875 L 80.886719 145.78125 C 81.753906 145.765625 82.578125 146.054688 83.226562 146.601562 L 85.285156 148.320312 C 85.679688 148.648438 85.410156 149.328125 84.875 149.339844 L 83.855469 149.355469 C 82.984375 149.371094 82.160156 149.078125 81.515625 148.539062 "/>
<path style=" stroke:none;fill-rule:nonzero;fill:rgb(85.882353%,5.098039%,8.235294%);fill-opacity:1;" d="M 86.628906 147.910156 L 84.449219 146.328125 C 84.039062 146.03125 84.261719 145.328125 84.789062 145.285156 L 85.808594 145.199219 C 86.671875 145.125 87.519531 145.355469 88.199219 145.855469 L 90.378906 147.429688 C 90.796875 147.734375 90.570312 148.429688 90.039062 148.46875 L 89.019531 148.558594 C 88.160156 148.628906 87.316406 148.398438 86.628906 147.910156 "/>
<path style=" stroke:none;fill-rule:nonzero;fill:rgb(85.882353%,5.098039%,8.235294%);fill-opacity:1;" d="M 91.691406 146.921875 L 89.414062 145.488281 C 88.976562 145.226562 89.148438 144.511719 89.675781 144.429688 L 90.679688 144.273438 C 91.535156 144.140625 92.398438 144.308594 93.113281 144.761719 L 95.390625 146.179688 C 95.828125 146.453125 95.648438 147.164062 95.128906 147.25 L 94.121094 147.40625 C 93.265625 147.535156 92.40625 147.363281 91.691406 146.921875 "/>
<path style=" stroke:none;fill-rule:nonzero;fill:rgb(85.882353%,5.098039%,8.235294%);fill-opacity:1;" d="M 96.671875 145.574219 L 94.296875 144.320312 C 93.839844 144.074219 93.96875 143.355469 94.480469 143.234375 L 95.46875 143.011719 C 96.324219 142.816406 97.191406 142.925781 97.941406 143.320312 L 100.308594 144.578125 C 100.765625 144.820312 100.644531 145.546875 100.125 145.660156 L 99.128906 145.886719 C 98.28125 146.085938 97.410156 145.976562 96.671875 145.574219 "/>
<path style=" stroke:none;fill-rule:nonzero;fill:rgb(85.882353%,5.098039%,8.235294%);fill-opacity:1;" d="M 101.539062 143.894531 L 99.085938 142.800781 C 98.613281 142.589844 98.683594 141.863281 99.195312 141.710938 L 100.175781 141.414062 C 101.003906 141.164062 101.878906 141.214844 102.648438 141.554688 L 105.105469 142.644531 C 105.574219 142.859375 105.5 143.585938 104.996094 143.738281 L 104.019531 144.035156 C 103.183594 144.289062 102.308594 144.238281 101.539062 143.894531 "/>
<path style=" stroke:none;fill-rule:nonzero;fill:rgb(85.882353%,5.098039%,8.235294%);fill-opacity:1;" d="M 106.285156 141.878906 L 103.761719 140.953125 C 103.273438 140.78125 103.300781 140.050781 103.789062 139.859375 L 104.75 139.5 C 105.566406 139.191406 106.441406 139.179688 107.230469 139.46875 L 109.75 140.386719 C 110.234375 140.558594 110.214844 141.300781 109.71875 141.484375 L 108.761719 141.84375 C 107.949219 142.15625 107.074219 142.164062 106.285156 141.878906 "/>
<path style=" stroke:none;fill-rule:nonzero;fill:rgb(85.882353%,5.098039%,8.235294%);fill-opacity:1;" d="M 110.875 139.535156 L 108.289062 138.796875 C 107.796875 138.65625 107.765625 137.921875 108.246094 137.695312 L 109.175781 137.269531 C 109.96875 136.90625 110.839844 136.835938 111.648438 137.066406 L 114.234375 137.804688 C 114.726562 137.949219 114.753906 138.679688 114.273438 138.898438 L 113.34375 139.324219 C 112.558594 139.695312 111.683594 139.765625 110.875 139.535156 "/>
<path style=" stroke:none;fill-rule:nonzero;fill:rgb(85.882353%,5.098039%,8.235294%);fill-opacity:1;" d="M 115.289062 136.875 L 112.660156 136.320312 C 112.15625 136.210938 112.078125 135.488281 112.546875 135.230469 L 113.433594 134.738281 C 114.195312 134.320312 115.066406 134.183594 115.890625 134.363281 L 118.519531 134.921875 C 119.023438 135.03125 119.101562 135.753906 118.640625 136.011719 L 117.738281 136.5 C 116.980469 136.914062 116.113281 137.046875 115.289062 136.875 "/>
<path style=" stroke:none;fill-rule:nonzero;fill:rgb(85.882353%,5.098039%,8.235294%);fill-opacity:1;" d="M 119.511719 133.914062 L 116.84375 133.535156 C 116.328125 133.464844 116.203125 132.746094 116.648438 132.460938 L 117.503906 131.90625 C 118.234375 131.429688 119.089844 131.234375 119.925781 131.355469 L 122.585938 131.730469 C 123.09375 131.800781 123.226562 132.523438 122.78125 132.804688 L 121.921875 133.359375 C 121.199219 133.839844 120.34375 134.03125 119.511719 133.914062 "/>
<path style=" stroke:none;fill-rule:nonzero;fill:rgb(85.882353%,5.098039%,8.235294%);fill-opacity:1;" d="M 123.511719 130.671875 L 120.828125 130.480469 C 120.320312 130.445312 120.140625 129.738281 120.566406 129.414062 L 121.378906 128.804688 C 122.070312 128.289062 122.914062 128.03125 123.753906 128.09375 L 126.433594 128.28125 C 126.949219 128.316406 127.128906 129.023438 126.703125 129.34375 L 125.886719 129.960938 C 125.195312 130.476562 124.355469 130.726562 123.511719 130.671875 "/>
<path style=" stroke:none;fill-rule:evenodd;fill:rgb(85.882353%,5.098039%,8.235294%);fill-opacity:1;" d="M 68.664062 15.820312 L 72.585938 12.996094 L 71.070312 8.371094 L 74.964844 11.226562 L 78.898438 8.355469 L 77.386719 12.941406 L 81.335938 15.796875 L 76.5 15.769531 L 75.003906 20.410156 L 73.535156 15.804688 Z M 68.664062 15.820312 "/>
<path style=" stroke:none;fill-rule:evenodd;fill:rgb(85.882353%,5.098039%,8.235294%);fill-opacity:1;" d="M 46.5 22.75 L 49.046875 18.640625 L 45.871094 14.941406 L 50.566406 16.09375 L 53.101562 11.933594 L 53.453125 16.75 L 58.195312 17.878906 L 53.726562 19.703125 L 54.113281 24.558594 L 50.996094 20.871094 Z M 46.5 22.75 "/>
<path style=" stroke:none;fill-rule:evenodd;fill:rgb(85.882353%,5.098039%,8.235294%);fill-opacity:1;" d="M 28.675781 37.628906 L 29.449219 32.863281 L 25.105469 30.660156 L 29.878906 29.925781 L 30.628906 25.113281 L 32.804688 29.429688 L 37.613281 28.65625 L 34.179688 32.058594 L 36.40625 36.390625 L 32.109375 34.179688 Z M 28.675781 37.628906 "/>
<path style=" stroke:none;fill-rule:evenodd;fill:rgb(85.882353%,5.098039%,8.235294%);fill-opacity:1;" d="M 17.898438 58.203125 L 16.796875 53.5 L 11.933594 53.128906 L 16.070312 50.625 L 14.921875 45.890625 L 18.578125 49.046875 L 22.726562 46.488281 L 20.855469 50.945312 L 24.570312 54.101562 L 19.75 53.699219 Z M 17.898438 58.203125 "/>
<path style=" stroke:none;fill-rule:evenodd;fill:rgb(85.882353%,5.098039%,8.235294%);fill-opacity:1;" d="M 15.820312 81.335938 L 12.996094 77.410156 L 8.371094 78.929688 L 11.226562 75.03125 L 8.355469 71.101562 L 12.945312 72.613281 L 15.796875 68.664062 L 15.769531 73.496094 L 20.410156 74.988281 L 15.808594 76.464844 Z M 15.820312 81.335938 "/>
<path style=" stroke:none;fill-rule:evenodd;fill:rgb(85.882353%,5.098039%,8.235294%);fill-opacity:1;" d="M 22.75 103.5 L 18.640625 100.953125 L 14.945312 104.128906 L 16.09375 99.433594 L 11.933594 96.898438 L 16.75 96.546875 L 17.878906 91.800781 L 19.703125 96.273438 L 24.566406 95.878906 L 20.871094 99.003906 Z M 22.75 103.5 "/>
<path style=" stroke:none;fill-rule:evenodd;fill:rgb(85.882353%,5.098039%,8.235294%);fill-opacity:1;" d="M 37.628906 121.324219 L 32.863281 120.546875 L 30.660156 124.894531 L 29.925781 120.113281 L 25.113281 119.363281 L 29.429688 117.195312 L 28.65625 112.386719 L 32.058594 115.816406 L 36.390625 113.59375 L 34.179688 117.890625 Z M 37.628906 121.324219 "/>
<path style=" stroke:none;fill-rule:evenodd;fill:rgb(85.882353%,5.098039%,8.235294%);fill-opacity:1;" d="M 58.203125 132.101562 L 53.5 133.203125 L 53.128906 138.058594 L 50.625 133.929688 L 45.890625 135.078125 L 49.046875 131.421875 L 46.488281 127.273438 L 50.949219 129.144531 L 54.101562 125.429688 L 53.699219 130.246094 Z M 58.203125 132.101562 "/>
<path style=" stroke:none;fill-rule:evenodd;fill:rgb(85.882353%,5.098039%,8.235294%);fill-opacity:1;" d="M 81.335938 134.179688 L 77.410156 137 L 78.929688 141.628906 L 75.03125 138.773438 L 71.101562 141.644531 L 72.613281 137.054688 L 68.664062 134.203125 L 73.496094 134.226562 L 74.988281 129.589844 L 76.464844 134.191406 Z M 81.335938 134.179688 "/>
<path style=" stroke:none;fill-rule:evenodd;fill:rgb(85.882353%,5.098039%,8.235294%);fill-opacity:1;" d="M 103.5 127.25 L 100.953125 131.359375 L 104.128906 135.054688 L 99.433594 133.90625 L 96.898438 138.066406 L 96.546875 133.246094 L 91.800781 132.121094 L 96.273438 130.296875 L 95.878906 125.433594 L 99.003906 129.125 Z M 103.5 127.25 "/>
<path style=" stroke:none;fill-rule:evenodd;fill:rgb(85.882353%,5.098039%,8.235294%);fill-opacity:1;" d="M 121.324219 112.363281 L 120.550781 117.136719 L 124.894531 119.335938 L 120.113281 120.070312 L 119.371094 124.886719 L 117.191406 120.566406 L 112.378906 121.34375 L 115.816406 117.941406 L 113.59375 113.605469 L 117.890625 115.820312 Z M 121.324219 112.363281 "/>
<path style=" stroke:none;fill-rule:evenodd;fill:rgb(85.882353%,5.098039%,8.235294%);fill-opacity:1;" d="M 132.101562 91.796875 L 133.203125 96.5 L 138.066406 96.871094 L 133.929688 99.375 L 135.078125 104.109375 L 131.421875 100.949219 L 127.273438 103.511719 L 129.144531 99.050781 L 125.429688 95.894531 L 130.246094 96.300781 Z M 132.101562 91.796875 "/>
<path style=" stroke:none;fill-rule:evenodd;fill:rgb(85.882353%,5.098039%,8.235294%);fill-opacity:1;" d="M 134.179688 68.664062 L 137 72.585938 L 141.628906 71.070312 L 138.773438 74.964844 L 141.644531 78.898438 L 137.054688 77.386719 L 134.203125 81.335938 L 134.226562 76.5 L 129.589844 75.003906 L 134.191406 73.535156 Z M 134.179688 68.664062 "/>
<path style=" stroke:none;fill-rule:evenodd;fill:rgb(85.882353%,5.098039%,8.235294%);fill-opacity:1;" d="M 127.25 46.5 L 131.359375 49.046875 L 135.054688 45.871094 L 133.90625 50.566406 L 138.066406 53.101562 L 133.246094 53.453125 L 132.121094 58.195312 L 130.289062 53.726562 L 125.433594 54.113281 L 129.125 50.996094 Z M 127.25 46.5 "/>
<path style=" stroke:none;fill-rule:evenodd;fill:rgb(85.882353%,5.098039%,8.235294%);fill-opacity:1;" d="M 112.363281 28.675781 L 117.136719 29.449219 L 119.335938 25.105469 L 120.070312 29.878906 L 124.886719 30.628906 L 120.570312 32.804688 L 121.34375 37.613281 L 117.941406 34.179688 L 113.605469 36.40625 L 115.820312 32.109375 Z M 112.363281 28.675781 "/>
<path style=" stroke:none;fill-rule:evenodd;fill:rgb(85.882353%,5.098039%,8.235294%);fill-opacity:1;" d="M 91.796875 17.898438 L 96.496094 16.796875 L 96.871094 11.933594 L 99.375 16.070312 L 104.109375 14.921875 L 100.949219 18.578125 L 103.511719 22.726562 L 99.054688 20.855469 L 95.894531 24.570312 L 96.300781 19.75 Z M 91.796875 17.898438 "/>
<path style=" stroke:none;fill-rule:nonzero;fill:rgb(85.882353%,5.098039%,8.235294%);fill-opacity:1;" d="M 75 37.910156 C 54.550781 37.910156 37.910156 54.550781 37.910156 75 C 37.910156 95.449219 54.550781 112.085938 75 112.085938 C 95.449219 112.085938 112.085938 95.449219 112.085938 75 C 112.089844 54.550781 95.453125 37.910156 75 37.910156 M 75 113.199219 C 53.933594 113.199219 36.796875 96.066406 36.796875 74.996094 C 36.796875 53.925781 53.933594 36.789062 75 36.789062 C 96.066406 36.789062 113.203125 53.929688 113.203125 74.996094 C 113.203125 96.058594 96.066406 113.199219 75 113.199219 "/>
<path style=" stroke:none;fill-rule:nonzero;fill:rgb(85.882353%,5.098039%,8.235294%);fill-opacity:1;" d="M 75 24.710938 C 47.269531 24.710938 24.710938 47.269531 24.710938 75 C 24.710938 102.730469 47.269531 125.285156 75 125.285156 C 102.730469 125.285156 125.289062 102.726562 125.289062 75 C 125.289062 47.269531 102.730469 24.710938 75 24.710938 M 75 126.433594 C 46.636719 126.433594 23.558594 103.359375 23.558594 74.996094 C 23.558594 46.636719 46.636719 23.554688 75 23.554688 C 103.363281 23.554688 126.441406 46.628906 126.441406 74.996094 C 126.441406 103.359375 103.363281 126.433594 75 126.433594 "/>
<path style=" stroke:none;fill-rule:nonzero;fill:rgb(85.882353%,5.098039%,8.235294%);fill-opacity:1;" d="M 61.234375 118.796875 L 62.730469 119.289062 L 62.355469 120.425781 L 58.078125 119.011719 L 58.449219 117.875 L 59.96875 118.378906 L 61.574219 113.535156 L 62.835938 113.949219 Z M 61.234375 118.796875 "/>
<path style=" stroke:none;fill-rule:nonzero;fill:rgb(85.882353%,5.098039%,8.235294%);fill-opacity:1;" d="M 55.136719 118.824219 C 54.976562 119.15625 54.613281 119.289062 54.308594 119.140625 C 54.019531 118.996094 53.921875 118.636719 54.078125 118.308594 C 54.234375 118 54.578125 117.84375 54.875 117.996094 C 55.191406 118.144531 55.289062 118.515625 55.136719 118.824219 M 53.511719 118.03125 C 53.351562 118.359375 53 118.496094 52.695312 118.34375 C 52.394531 118.199219 52.296875 117.835938 52.453125 117.511719 C 52.605469 117.199219 52.953125 117.046875 53.253906 117.199219 C 53.574219 117.351562 53.664062 117.714844 53.511719 118.03125 M 55.238281 117.765625 L 56.839844 114.511719 C 57.316406 113.535156 57.21875 112.871094 56.605469 112.574219 C 55.980469 112.265625 55.40625 112.570312 54.914062 113.566406 L 53.316406 116.820312 L 52.125 116.234375 L 53.683594 113.066406 C 54.539062 111.320312 55.769531 110.890625 57.144531 111.566406 C 58.476562 112.21875 58.871094 113.390625 57.980469 115.195312 L 56.429688 118.351562 Z M 55.238281 117.765625 "/>
<path style=" stroke:none;fill-rule:nonzero;fill:rgb(85.882353%,5.098039%,8.235294%);fill-opacity:1;" d="M 50.699219 112.039062 L 50.269531 111.75 C 49.726562 111.375 49.199219 111.449219 48.890625 111.90625 C 48.566406 112.386719 48.703125 112.828125 49.203125 113.175781 C 49.46875 113.355469 49.636719 113.433594 49.726562 113.476562 Z M 50.261719 115.015625 C 49.863281 114.835938 49.308594 114.523438 48.730469 114.128906 C 48.011719 113.640625 47.585938 113.183594 47.441406 112.65625 C 47.320312 112.210938 47.410156 111.738281 47.734375 111.261719 C 48.183594 110.59375 48.933594 110.441406 49.464844 110.558594 L 49.480469 110.539062 C 49.238281 110.160156 49.289062 109.691406 49.496094 109.125 C 49.738281 108.433594 50.054688 107.65625 50.09375 107.390625 L 51.214844 108.15625 C 51.195312 108.355469 51.019531 108.859375 50.726562 109.601562 C 50.414062 110.335938 50.5 110.65625 50.941406 110.964844 L 51.269531 111.191406 L 52.664062 109.140625 L 53.75 109.878906 Z M 50.261719 115.015625 "/>
<path style=" stroke:none;fill-rule:nonzero;fill:rgb(85.882353%,5.098039%,8.235294%);fill-opacity:1;" d="M 45.121094 111.445312 L 44.140625 110.570312 L 46 108.5 L 45.980469 108.480469 C 45.71875 108.574219 45.46875 108.648438 45.21875 108.726562 L 42.835938 109.394531 L 41.625 108.308594 L 44.855469 107.609375 L 45.746094 103.554688 L 46.898438 104.589844 L 46.148438 107.570312 L 46.96875 107.414062 L 48.339844 105.886719 L 49.320312 106.761719 Z M 45.121094 111.445312 "/>
<path style=" stroke:none;fill-rule:nonzero;fill:rgb(85.882353%,5.098039%,8.235294%);fill-opacity:1;" d="M 39.640625 106.09375 L 44.308594 101.863281 L 45.199219 102.855469 L 40.535156 107.078125 Z M 39.746094 107.699219 C 39.476562 107.945312 39.089844 107.933594 38.859375 107.679688 C 38.640625 107.433594 38.679688 107.058594 38.949219 106.816406 C 39.199219 106.589844 39.589844 106.574219 39.808594 106.820312 C 40.039062 107.078125 39.996094 107.46875 39.746094 107.699219 "/>
<path style=" stroke:none;fill-rule:nonzero;fill:rgb(85.882353%,5.098039%,8.235294%);fill-opacity:1;" d="M 42.566406 99.738281 L 40.496094 101.269531 L 38.601562 104.964844 L 37.699219 103.746094 L 38.566406 102.363281 C 38.824219 101.945312 39.023438 101.648438 39.265625 101.285156 L 39.253906 101.269531 C 38.859375 101.398438 38.484375 101.5 38.019531 101.625 L 36.449219 102.050781 L 35.566406 100.851562 L 39.664062 100.226562 L 41.78125 98.664062 Z M 42.566406 99.738281 "/>
<path style=" stroke:none;fill-rule:nonzero;fill:rgb(85.882353%,5.098039%,8.235294%);fill-opacity:1;" d="M 36.183594 94.621094 L 37.234375 96.503906 L 38.539062 95.773438 L 37.363281 93.671875 L 38.390625 93.101562 L 40.210938 96.371094 L 34.710938 99.441406 L 32.949219 96.273438 L 33.96875 95.710938 L 35.085938 97.710938 L 36.226562 97.070312 L 35.175781 95.183594 Z M 36.183594 94.621094 "/>
<path style=" stroke:none;fill-rule:nonzero;fill:rgb(85.882353%,5.098039%,8.235294%);fill-opacity:1;" d="M 35.585938 86.429688 C 35.785156 86.613281 36.101562 87.085938 36.339844 87.761719 C 37.011719 89.671875 36.078125 91.105469 34.386719 91.699219 C 32.359375 92.414062 30.753906 91.46875 30.171875 89.796875 C 29.945312 89.148438 29.910156 88.605469 29.953125 88.339844 L 31.109375 88.214844 C 31.085938 88.511719 31.101562 88.898438 31.261719 89.34375 C 31.609375 90.335938 32.523438 90.878906 33.84375 90.414062 C 35.039062 89.996094 35.554688 89.074219 35.164062 87.960938 C 35.03125 87.578125 34.796875 87.195312 34.605469 86.988281 Z M 35.585938 86.429688 "/>
<path style=" stroke:none;fill-rule:nonzero;fill:rgb(85.882353%,5.098039%,8.235294%);fill-opacity:1;" d="M 29.039062 85.324219 L 32.601562 84.613281 C 33.660156 84.398438 34.128906 83.921875 33.996094 83.253906 C 33.859375 82.570312 33.269531 82.300781 32.179688 82.519531 L 28.621094 83.230469 L 28.359375 81.933594 L 31.824219 81.246094 C 33.730469 80.863281 34.820312 81.578125 35.121094 83.078125 C 35.410156 84.53125 34.71875 85.550781 32.75 85.945312 L 29.300781 86.636719 Z M 29.039062 85.324219 "/>
<path style=" stroke:none;fill-rule:nonzero;fill:rgb(85.882353%,5.098039%,8.235294%);fill-opacity:1;" d="M 31.789062 74.535156 C 31.03125 74.574219 30.121094 74.621094 29.203125 74.636719 L 29.203125 74.660156 C 30.011719 74.828125 30.914062 75.054688 31.65625 75.265625 L 34.128906 75.929688 L 34.148438 76.964844 L 31.726562 77.640625 C 30.988281 77.84375 30.101562 78.058594 29.273438 78.214844 L 29.273438 78.234375 C 30.125 78.253906 31.101562 78.261719 31.886719 78.289062 L 34.28125 78.351562 L 34.304688 79.574219 L 28 79.320312 L 27.964844 77.554688 L 30.054688 76.941406 C 30.78125 76.746094 31.566406 76.546875 32.300781 76.40625 L 32.300781 76.378906 C 31.566406 76.230469 30.730469 76.046875 30.023438 75.863281 L 27.921875 75.28125 L 27.886719 73.550781 L 34.179688 73.109375 L 34.203125 74.40625 Z M 31.789062 74.535156 "/>
<path style=" stroke:none;fill-rule:nonzero;fill:rgb(85.882353%,5.098039%,8.235294%);fill-opacity:1;" d="M 28.203125 69.695312 L 30.601562 70.019531 L 30.890625 67.859375 L 28.496094 67.535156 L 28.671875 66.226562 L 34.910156 67.078125 L 34.730469 68.386719 L 32.121094 68.03125 L 31.835938 70.191406 L 34.441406 70.546875 L 34.261719 71.863281 L 28.023438 71.015625 Z M 28.203125 69.695312 "/>
<path style=" stroke:none;fill-rule:nonzero;fill:rgb(85.882353%,5.098039%,8.235294%);fill-opacity:1;" d="M 29.535156 62.695312 L 33.011719 63.71875 C 34.054688 64.023438 34.683594 63.816406 34.878906 63.164062 C 35.078125 62.496094 34.683594 61.984375 33.621094 61.671875 L 30.140625 60.644531 L 30.515625 59.375 L 33.90625 60.375 C 35.769531 60.929688 36.398438 62.066406 35.964844 63.53125 C 35.546875 64.945312 34.453125 65.53125 32.523438 64.960938 L 29.15625 63.964844 Z M 29.535156 62.695312 "/>
<path style=" stroke:none;fill-rule:nonzero;fill:rgb(85.882353%,5.098039%,8.235294%);fill-opacity:1;" d="M 34.425781 57.210938 L 34.640625 56.734375 C 34.914062 56.136719 34.753906 55.628906 34.25 55.398438 C 33.726562 55.15625 33.308594 55.371094 33.050781 55.914062 C 32.914062 56.203125 32.871094 56.386719 32.84375 56.480469 Z M 31.414062 57.273438 C 31.523438 56.855469 31.738281 56.253906 32.03125 55.613281 C 32.390625 54.824219 32.773438 54.328125 33.269531 54.101562 C 33.691406 53.90625 34.164062 53.921875 34.695312 54.160156 C 35.429688 54.496094 35.710938 55.203125 35.675781 55.75 L 35.699219 55.761719 C 36.03125 55.460938 36.503906 55.429688 37.09375 55.539062 C 37.816406 55.671875 38.640625 55.84375 38.910156 55.84375 L 38.34375 57.078125 C 38.144531 57.09375 37.621094 57.003906 36.839844 56.839844 C 36.058594 56.65625 35.761719 56.796875 35.523438 57.285156 L 35.359375 57.644531 L 37.609375 58.679688 L 37.066406 59.875 Z M 31.414062 57.273438 "/>
<path style=" stroke:none;fill-rule:nonzero;fill:rgb(85.882353%,5.098039%,8.235294%);fill-opacity:1;" d="M 34.71875 50.621094 L 40.144531 53.816406 L 39.476562 54.964844 L 34.050781 51.769531 Z M 33.226562 51.199219 C 32.910156 51.015625 32.804688 50.640625 32.980469 50.351562 C 33.144531 50.066406 33.515625 49.988281 33.824219 50.175781 C 34.113281 50.34375 34.246094 50.714844 34.078125 51 C 33.898438 51.296875 33.515625 51.371094 33.226562 51.199219 "/>
<path style=" stroke:none;fill-rule:nonzero;fill:rgb(85.882353%,5.098039%,8.235294%);fill-opacity:1;" d="M 41.65625 51.511719 L 39.570312 49.984375 L 35.46875 49.28125 L 36.363281 48.054688 L 37.945312 48.46875 C 38.425781 48.59375 38.769531 48.695312 39.191406 48.820312 L 39.199219 48.804688 C 38.960938 48.46875 38.746094 48.140625 38.488281 47.734375 L 37.613281 46.363281 L 38.496094 45.164062 L 40.320312 48.894531 L 42.441406 50.449219 Z M 41.65625 51.511719 "/>
<path style=" stroke:none;fill-rule:nonzero;fill:rgb(85.882353%,5.098039%,8.235294%);fill-opacity:1;" d="M 44.65625 43.863281 L 43.175781 45.433594 L 44.261719 46.460938 L 45.910156 44.710938 L 46.761719 45.515625 L 44.191406 48.230469 L 39.621094 43.898438 L 42.109375 41.273438 L 42.953125 42.078125 L 41.386719 43.738281 L 42.335938 44.640625 L 43.816406 43.070312 Z M 44.65625 43.863281 "/>
<path style=" stroke:none;fill-rule:nonzero;fill:rgb(85.882353%,5.098039%,8.235294%);fill-opacity:1;" d="M 45.234375 40.078125 L 44.019531 41.085938 L 43.261719 40.160156 L 46.726562 37.285156 L 47.484375 38.203125 L 46.261719 39.230469 L 49.511719 43.160156 L 48.484375 44.011719 Z M 45.234375 40.078125 "/>
<path style=" stroke:none;fill-rule:nonzero;fill:rgb(85.882353%,5.098039%,8.235294%);fill-opacity:1;" d="M 49.113281 35.675781 L 52.65625 40.886719 L 51.550781 41.636719 L 48.015625 36.425781 Z M 47.511719 35.554688 C 47.304688 35.253906 47.371094 34.871094 47.648438 34.679688 C 47.925781 34.496094 48.289062 34.585938 48.496094 34.886719 C 48.683594 35.164062 48.644531 35.554688 48.371094 35.738281 C 48.078125 35.933594 47.699219 35.835938 47.511719 35.554688 "/>
<path style=" stroke:none;fill-rule:nonzero;fill:rgb(85.882353%,5.098039%,8.235294%);fill-opacity:1;" d="M 54.769531 37.863281 C 55.175781 37.886719 55.75 37.820312 56.261719 37.566406 C 56.804688 37.296875 56.976562 36.910156 56.796875 36.539062 C 56.621094 36.191406 56.269531 36.109375 55.519531 36.179688 C 54.484375 36.285156 53.660156 36.046875 53.25 35.226562 C 52.773438 34.265625 53.160156 33.15625 54.398438 32.546875 C 54.988281 32.25 55.496094 32.164062 55.878906 32.164062 L 56.125 33.324219 C 55.859375 33.320312 55.40625 33.34375 54.890625 33.601562 C 54.375 33.855469 54.25 34.230469 54.394531 34.523438 C 54.574219 34.886719 54.949219 34.894531 55.765625 34.835938 C 56.875 34.746094 57.570312 35.050781 57.960938 35.84375 C 58.429688 36.789062 58.144531 37.929688 56.703125 38.644531 C 56.105469 38.941406 55.429688 39.070312 55.050781 39.039062 Z M 54.769531 37.863281 "/>
<path style=" stroke:none;fill-rule:nonzero;fill:rgb(85.882353%,5.098039%,8.235294%);fill-opacity:1;" d="M 61.574219 33.65625 L 60.800781 32.503906 C 60.578125 32.183594 60.328125 31.773438 60.128906 31.445312 L 60.113281 31.449219 C 60.15625 31.828125 60.226562 32.308594 60.25 32.691406 L 60.351562 34.070312 Z M 60.511719 35.140625 L 60.636719 36.808594 L 59.335938 37.246094 L 59 30.699219 L 60.648438 30.144531 L 64.398438 35.535156 L 63.046875 35.988281 L 62.101562 34.601562 Z M 60.511719 35.140625 "/>
<path style=" stroke:none;fill-rule:nonzero;fill:rgb(85.882353%,5.098039%,8.235294%);fill-opacity:1;" d="M 65.269531 35.324219 L 64.148438 29.128906 L 65.671875 28.851562 L 67.28125 30.898438 C 67.738281 31.488281 68.21875 32.199219 68.605469 32.851562 L 68.628906 32.84375 C 68.394531 32.046875 68.21875 31.210938 68.050781 30.285156 L 67.71875 28.476562 L 68.914062 28.253906 L 70.039062 34.449219 L 68.675781 34.695312 L 67.011719 32.535156 C 66.546875 31.933594 66.03125 31.203125 65.613281 30.53125 L 65.589844 30.546875 C 65.769531 31.355469 65.945312 32.226562 66.128906 33.238281 L 66.464844 35.105469 Z M 65.269531 35.324219 "/>
<path style=" stroke:none;fill-rule:nonzero;fill:rgb(85.882353%,5.098039%,8.235294%);fill-opacity:1;" d="M 74.160156 31.554688 L 73.769531 30.226562 C 73.660156 29.855469 73.546875 29.386719 73.449219 29.015625 L 73.429688 29.015625 C 73.351562 29.394531 73.273438 29.871094 73.183594 30.234375 L 72.859375 31.578125 Z M 72.691406 32.648438 L 72.304688 34.273438 L 70.929688 34.300781 L 72.601562 27.964844 L 74.339844 27.929688 L 76.273438 34.195312 L 74.851562 34.21875 L 74.363281 32.609375 Z M 72.691406 32.648438 "/>
<path style=" stroke:none;fill-rule:nonzero;fill:rgb(85.882353%,5.098039%,8.235294%);fill-opacity:1;" d="M 78.074219 34.335938 L 78.316406 31.765625 L 76.808594 27.894531 L 78.320312 28.03125 L 78.773438 29.59375 C 78.914062 30.066406 79.003906 30.410156 79.113281 30.835938 L 79.136719 30.835938 C 79.300781 30.453125 79.46875 30.105469 79.683594 29.675781 L 80.414062 28.226562 L 81.894531 28.359375 L 79.636719 31.839844 L 79.394531 34.449219 Z M 78.074219 34.335938 "/>
<path style=" stroke:none;fill-rule:nonzero;fill:rgb(85.882353%,5.098039%,8.235294%);fill-opacity:1;" d="M 83.679688 27.703125 C 83.75 27.34375 84.066406 27.125 84.398438 27.191406 C 84.71875 27.253906 84.914062 27.574219 84.84375 27.933594 C 84.78125 28.265625 84.476562 28.511719 84.15625 28.445312 C 83.816406 28.375 83.613281 28.035156 83.679688 27.703125 M 84.726562 28.929688 L 83.519531 35.113281 L 82.214844 34.859375 L 83.421875 28.675781 Z M 84.726562 28.929688 "/>
<path style=" stroke:none;fill-rule:nonzero;fill:rgb(85.882353%,5.098039%,8.235294%);fill-opacity:1;" d="M 87.933594 36.308594 L 88.285156 29.75 L 89.648438 30.234375 L 89.425781 32.980469 C 89.363281 33.753906 89.289062 34.488281 89.160156 35.273438 L 89.183594 35.28125 C 89.578125 34.613281 90.003906 33.976562 90.429688 33.363281 L 92.035156 31.078125 L 93.359375 31.554688 L 89.390625 36.820312 Z M 87.933594 36.308594 "/>
<path style=" stroke:none;fill-rule:nonzero;fill:rgb(85.882353%,5.098039%,8.235294%);fill-opacity:1;" d="M 96.339844 37.113281 L 94.421875 36.128906 L 93.738281 37.464844 L 95.878906 38.558594 L 95.351562 39.601562 L 92.019531 37.894531 L 94.894531 32.289062 L 98.113281 33.941406 L 97.578125 34.980469 L 95.546875 33.933594 L 94.949219 35.101562 L 96.871094 36.085938 Z M 96.339844 37.113281 "/>
<path style=" stroke:none;fill-rule:nonzero;fill:rgb(85.882353%,5.098039%,8.235294%);fill-opacity:1;" d="M 101.75 37.714844 L 100.484375 36.78125 L 101.195312 35.816406 L 104.820312 38.5 L 104.105469 39.460938 L 102.820312 38.503906 L 99.78125 42.609375 L 98.710938 41.816406 Z M 101.75 37.714844 "/>
<path style=" stroke:none;fill-rule:nonzero;fill:rgb(85.882353%,5.098039%,8.235294%);fill-opacity:1;" d="M 106.121094 44.636719 L 104.554688 43.15625 L 103.523438 44.246094 L 105.273438 45.894531 L 104.476562 46.75 L 101.753906 44.179688 L 106.085938 39.601562 L 108.714844 42.078125 L 107.910156 42.933594 L 106.25 41.359375 L 105.351562 42.316406 L 106.921875 43.796875 Z M 106.121094 44.636719 "/>
<path style=" stroke:none;fill-rule:nonzero;fill:rgb(85.882353%,5.098039%,8.235294%);fill-opacity:1;" d="M 110.183594 43.65625 L 111.015625 44.671875 L 108.855469 46.429688 L 108.875 46.449219 C 109.140625 46.398438 109.40625 46.363281 109.660156 46.320312 L 112.125 46.03125 L 113.148438 47.289062 L 109.84375 47.480469 L 108.335938 51.339844 L 107.355469 50.144531 L 108.558594 47.316406 L 107.726562 47.34375 L 106.136719 48.640625 L 105.304688 47.625 Z M 110.183594 43.65625 "/>
<path style=" stroke:none;fill-rule:nonzero;fill:rgb(85.882353%,5.098039%,8.235294%);fill-opacity:1;" d="M 108.765625 51.996094 L 114.160156 48.765625 L 114.953125 50.089844 L 113.601562 52.316406 C 113.214844 52.953125 112.714844 53.648438 112.246094 54.238281 L 112.253906 54.265625 C 112.925781 53.765625 113.636719 53.304688 114.449219 52.820312 L 116.023438 51.875 L 116.648438 52.921875 L 111.253906 56.148438 L 110.539062 54.953125 L 111.976562 52.636719 C 112.375 51.988281 112.875 51.246094 113.355469 50.621094 L 113.335938 50.601562 C 112.644531 51.054688 111.890625 51.53125 111.011719 52.054688 L 109.386719 53.03125 Z M 108.765625 51.996094 "/>
<path style=" stroke:none;fill-rule:nonzero;fill:rgb(85.882353%,5.098039%,8.235294%);fill-opacity:1;" d="M 115.199219 57.246094 C 114.054688 57.710938 113.449219 58.535156 113.785156 59.355469 C 114.121094 60.183594 115.160156 60.320312 116.296875 59.859375 C 117.34375 59.433594 118.054688 58.605469 117.710938 57.761719 C 117.378906 56.929688 116.335938 56.789062 115.199219 57.246094 M 116.863281 61.140625 C 114.949219 61.914062 113.355469 61.300781 112.710938 59.714844 C 112.054688 58.101562 112.984375 56.628906 114.644531 55.953125 C 116.394531 55.246094 118.121094 55.753906 118.769531 57.359375 C 119.449219 59.035156 118.476562 60.488281 116.863281 61.140625 "/>
<path style=" stroke:none;fill-rule:nonzero;fill:rgb(85.882353%,5.098039%,8.235294%);fill-opacity:1;" d="M 120.269531 61.921875 L 120.59375 63.210938 L 115.644531 64.449219 L 116.210938 66.710938 L 115.050781 66.996094 L 114.15625 63.445312 Z M 120.269531 61.921875 "/>
<path style=" stroke:none;fill-rule:nonzero;fill:rgb(85.882353%,5.098039%,8.235294%);fill-opacity:1;" d="M 118.476562 68.621094 C 117.25 68.753906 116.445312 69.386719 116.546875 70.269531 C 116.644531 71.160156 117.613281 71.566406 118.828125 71.429688 C 119.953125 71.300781 120.863281 70.695312 120.765625 69.789062 C 120.664062 68.898438 119.695312 68.484375 118.476562 68.621094 M 119.035156 72.816406 C 116.980469 73.046875 115.605469 72.03125 115.410156 70.328125 C 115.214844 68.605469 116.503906 67.433594 118.285156 67.234375 C 120.164062 67.023438 121.691406 67.984375 121.886719 69.699219 C 122.09375 71.484375 120.765625 72.621094 119.035156 72.816406 "/>
<path style=" stroke:none;fill-rule:nonzero;fill:rgb(85.882353%,5.098039%,8.235294%);fill-opacity:1;" d="M 122.089844 75.398438 L 122.078125 76.71875 L 118.09375 76.683594 C 116.300781 76.664062 115.679688 75.859375 115.691406 74.574219 C 115.691406 74.269531 115.753906 73.871094 115.84375 73.609375 L 116.996094 73.765625 C 116.929688 73.949219 116.878906 74.183594 116.878906 74.445312 C 116.875 75 117.144531 75.351562 118.125 75.359375 Z M 122.089844 75.398438 "/>
<path style=" stroke:none;fill-rule:nonzero;fill:rgb(85.882353%,5.098039%,8.235294%);fill-opacity:1;" d="M 122.933594 78.851562 C 123.296875 78.886719 123.554688 79.175781 123.519531 79.515625 C 123.488281 79.84375 123.183594 80.070312 122.824219 80.035156 C 122.488281 80.003906 122.214844 79.726562 122.246094 79.394531 C 122.28125 79.050781 122.601562 78.816406 122.933594 78.851562 M 121.824219 80.011719 L 115.554688 79.429688 L 115.675781 78.105469 L 121.945312 78.683594 Z M 121.824219 80.011719 "/>
<path style=" stroke:none;fill-rule:nonzero;fill:rgb(85.882353%,5.098039%,8.235294%);fill-opacity:1;" d="M 118.519531 84.78125 L 118.421875 85.199219 C 118.261719 85.878906 118.46875 86.316406 118.925781 86.425781 C 119.390625 86.535156 119.714844 86.265625 119.855469 85.683594 C 119.921875 85.40625 119.945312 85.238281 119.949219 85.128906 Z M 115.804688 84.121094 C 115.753906 84.238281 115.71875 84.394531 115.664062 84.613281 C 115.523438 85.195312 115.636719 85.769531 116.285156 85.929688 C 116.90625 86.078125 117.269531 85.621094 117.425781 84.980469 L 117.535156 84.539062 Z M 121.175781 84.066406 C 121.164062 84.421875 121.054688 85.121094 120.898438 85.761719 C 120.710938 86.546875 120.511719 87.011719 120.148438 87.359375 C 119.824219 87.703125 119.339844 87.890625 118.785156 87.753906 C 118.238281 87.625 117.804688 87.203125 117.703125 86.5 L 117.683594 86.496094 C 117.335938 87.101562 116.691406 87.453125 115.90625 87.265625 C 115.351562 87.128906 114.96875 86.785156 114.746094 86.359375 C 114.488281 85.859375 114.453125 85.113281 114.730469 83.984375 C 114.878906 83.351562 115.039062 82.890625 115.15625 82.609375 Z M 121.175781 84.066406 "/>
<path style=" stroke:none;fill-rule:nonzero;fill:rgb(85.882353%,5.098039%,8.235294%);fill-opacity:1;" d="M 115.253906 91.441406 L 116.636719 91.589844 C 117.019531 91.628906 117.496094 91.703125 117.871094 91.761719 L 117.878906 91.746094 C 117.566406 91.523438 117.148438 91.269531 116.84375 91.050781 L 115.730469 90.234375 Z M 114.808594 89.664062 L 113.460938 88.683594 L 113.964844 87.40625 L 119.164062 91.378906 L 118.53125 92.996094 L 112.011719 92.378906 L 112.53125 91.050781 L 114.199219 91.21875 Z M 114.808594 89.664062 "/>
<path style=" stroke:none;fill-rule:nonzero;fill:rgb(85.882353%,5.098039%,8.235294%);fill-opacity:1;" d="M 117.066406 96.289062 L 116.421875 97.429688 L 113.996094 96.058594 L 113.980469 96.078125 C 114.128906 96.316406 114.253906 96.546875 114.386719 96.769531 L 115.554688 98.953125 L 114.753906 100.371094 L 113.371094 97.363281 L 109.214844 97.363281 L 109.976562 96.019531 L 113.050781 96.109375 L 112.71875 95.34375 L 110.925781 94.335938 L 111.570312 93.195312 Z M 117.066406 96.289062 "/>
<path style=" stroke:none;fill-rule:nonzero;fill:rgb(85.882353%,5.098039%,8.235294%);fill-opacity:1;" d="M 109.003906 102.09375 L 110.285156 102.628906 C 110.644531 102.773438 111.074219 102.980469 111.425781 103.140625 L 111.433594 103.125 C 111.191406 102.828125 110.871094 102.464844 110.640625 102.164062 L 109.796875 101.070312 Z M 109.074219 100.265625 L 108.054688 98.945312 L 108.898438 97.859375 L 112.773438 103.140625 L 111.703125 104.515625 L 105.621094 102.089844 L 106.496094 100.964844 L 108.050781 101.59375 Z M 109.074219 100.265625 "/>
<path style=" stroke:none;fill-rule:nonzero;fill:rgb(85.882353%,5.098039%,8.235294%);fill-opacity:1;" d="M 105.003906 102.738281 L 109.375 107.28125 L 108.261719 108.351562 L 105.78125 107.53125 C 105.070312 107.296875 104.273438 106.96875 103.59375 106.640625 L 103.574219 106.660156 C 104.214844 107.195312 104.820312 107.796875 105.476562 108.476562 L 106.753906 109.800781 L 105.875 110.644531 L 101.503906 106.105469 L 102.511719 105.140625 L 105.09375 106.023438 C 105.816406 106.269531 106.65625 106.589844 107.371094 106.921875 L 107.378906 106.894531 C 106.78125 106.320312 106.148438 105.691406 105.441406 104.949219 L 104.125 103.585938 Z M 105.003906 102.738281 "/>
<path style=" stroke:none;fill-rule:nonzero;fill:rgb(85.882353%,5.098039%,8.235294%);fill-opacity:1;" d="M 104.109375 112.050781 L 103.039062 112.839844 L 100.019531 108.726562 L 98.140625 110.101562 L 97.429688 109.136719 L 100.390625 106.976562 Z M 104.109375 112.050781 "/>
<path style=" stroke:none;fill-rule:nonzero;fill:rgb(85.882353%,5.098039%,8.235294%);fill-opacity:1;" d="M 98.664062 115.726562 L 95.421875 110.324219 L 96.558594 109.644531 L 99.804688 115.039062 Z M 98.664062 115.726562 "/>
<path style=" stroke:none;fill-rule:nonzero;fill:rgb(85.882353%,5.098039%,8.235294%);fill-opacity:1;" d="M 95.503906 119.125 C 95.394531 118.949219 95.183594 118.800781 94.859375 118.949219 C 94.53125 119.105469 94.488281 119.34375 94.546875 119.570312 L 93.929688 119.855469 C 93.664062 119.230469 93.796875 118.621094 94.546875 118.273438 C 95.324219 117.914062 95.84375 118.21875 96.140625 118.835938 Z M 89.90625 113.378906 C 90.214844 113.074219 90.828125 112.558594 91.53125 112.238281 C 92.5 111.796875 93.324219 111.730469 94.046875 112.015625 C 94.761719 112.28125 95.375 112.90625 95.753906 113.75 C 96.621094 115.65625 95.835938 117.335938 94.089844 118.136719 C 93.40625 118.449219 92.808594 118.550781 92.484375 118.535156 L 92.261719 117.386719 C 92.613281 117.386719 93.03125 117.328125 93.613281 117.058594 C 94.613281 116.59375 95.09375 115.636719 94.523438 114.398438 C 93.980469 113.21875 92.976562 112.839844 91.988281 113.296875 C 91.714844 113.425781 91.511719 113.558594 91.441406 113.648438 L 91.988281 114.851562 L 92.816406 114.46875 L 93.28125 115.480469 L 91.300781 116.394531 Z M 89.90625 113.378906 "/>
<path style=" stroke:none;fill-rule:nonzero;fill:rgb(85.882353%,5.098039%,8.235294%);fill-opacity:1;" d="M 87.214844 113.933594 L 88.476562 113.515625 L 90.460938 119.488281 L 89.199219 119.910156 Z M 87.214844 113.933594 "/>
<path style=" stroke:none;fill-rule:nonzero;fill:rgb(85.882353%,5.098039%,8.235294%);fill-opacity:1;" d="M 75.003906 117.421875 C 74.011719 117.421875 73.199219 118.226562 73.199219 119.226562 C 73.199219 120.21875 74.011719 121.03125 75.003906 121.03125 C 76.003906 121.03125 76.808594 120.226562 76.808594 119.226562 C 76.808594 118.226562 76 117.421875 75.003906 117.421875 "/>
<path style=" stroke:none;fill-rule:nonzero;fill:rgb(85.882353%,5.098039%,8.235294%);fill-opacity:1;" d="M 74.210938 81.464844 L 74.203125 81.464844 C 72.085938 81.464844 70.214844 80.441406 69.023438 78.875 C 68.210938 77.796875 67.734375 76.449219 67.734375 74.996094 C 67.734375 74.433594 67.800781 73.898438 67.933594 73.386719 C 68.34375 71.804688 69.339844 70.453125 70.664062 69.589844 C 70.933594 69.410156 71.226562 69.246094 71.523438 69.109375 C 72.34375 68.738281 73.25 68.53125 74.210938 68.53125 C 76.121094 68.53125 77.835938 69.355469 79.019531 70.675781 C 77.585938 68.414062 75.054688 66.910156 72.183594 66.910156 C 71.351562 66.910156 70.535156 67.039062 69.773438 67.273438 C 69.441406 67.378906 69.121094 67.5 68.816406 67.648438 C 67.359375 68.316406 66.144531 69.394531 65.316406 70.738281 C 64.539062 71.980469 64.101562 73.441406 64.101562 75 C 64.101562 77.421875 65.160156 79.589844 66.839844 81.066406 C 68.265625 82.324219 70.136719 83.085938 72.183594 83.085938 C 72.320312 83.085938 72.460938 83.085938 72.59375 83.070312 C 73.863281 83.011719 75.050781 82.660156 76.101562 82.070312 C 77.285156 81.414062 78.296875 80.464844 79.019531 79.316406 C 78.09375 80.34375 76.851562 81.074219 75.445312 81.34375 C 75.046875 81.429688 74.636719 81.464844 74.210938 81.464844 "/>
<path style=" stroke:none;fill-rule:nonzero;fill:rgb(85.882353%,5.098039%,8.235294%);fill-opacity:1;" d="M 83.109375 73.53125 L 82.125 72.179688 L 81.378906 71.160156 L 81.378906 74.089844 L 78.585938 75 L 81.378906 75.910156 L 81.378906 78.851562 L 83.109375 76.46875 L 85.898438 77.378906 L 84.628906 75.625 L 84.175781 75 L 85.898438 72.625 Z M 83.109375 73.53125 "/>
<path style=" stroke:none;fill-rule:nonzero;fill:rgb(85.882353%,5.098039%,8.235294%);fill-opacity:1;" d="M 75.085938 93.613281 C 64.890625 93.613281 56.601562 85.265625 56.601562 74.996094 C 56.601562 64.730469 64.890625 56.375 75.085938 56.375 C 85.273438 56.375 93.570312 64.726562 93.570312 74.996094 C 93.570312 85.265625 85.273438 93.613281 75.085938 93.613281 M 105.203125 77.808594 L 105.203125 71.976562 L 98.621094 71.394531 C 98.355469 69.511719 97.875 67.695312 97.199219 65.980469 L 102.636719 62.460938 L 99.878906 57.585938 L 93.800781 60.046875 C 92.65625 58.578125 91.335938 57.261719 89.878906 56.101562 L 92.480469 50.25 L 87.835938 47.550781 L 83.878906 52.609375 C 82.25 51.960938 80.53125 51.484375 78.746094 51.210938 L 78.144531 44.839844 L 75.941406 44.730469 C 75.65625 44.71875 75.371094 44.714844 75.078125 44.714844 C 58.378906 44.714844 44.796875 58.300781 44.789062 75 L 44.789062 76.121094 L 44.808594 76.121094 C 44.871094 77.789062 45.101562 79.421875 45.421875 81.015625 C 45.195312 81.226562 45.050781 81.519531 45.050781 81.851562 C 45.050781 82.484375 45.566406 83 46.203125 83 C 46.839844 83 47.355469 82.484375 47.355469 81.851562 C 47.355469 81.320312 46.988281 80.894531 46.503906 80.761719 C 46.199219 79.25 45.988281 77.703125 45.929688 76.121094 L 48.320312 76.121094 C 48.683594 84.984375 53.40625 92.714844 60.371094 97.320312 C 60.363281 97.363281 60.34375 97.410156 60.34375 97.453125 C 60.34375 98.089844 60.859375 98.605469 61.496094 98.605469 C 62.128906 98.605469 62.644531 98.089844 62.644531 97.453125 C 62.644531 96.820312 62.128906 96.304688 61.496094 96.304688 C 61.324219 96.304688 61.164062 96.351562 61.019531 96.414062 C 54.164062 91.894531 49.574219 84.214844 49.425781 75.445312 L 49.425781 75 L 45.90625 75 C 45.90625 68.484375 48.054688 62.460938 51.679688 57.601562 L 54.28125 59.910156 L 55 59.054688 C 57.628906 55.75 61.078125 53.144531 65.011719 51.460938 C 65.179688 51.558594 65.363281 51.636719 65.578125 51.636719 C 66.214844 51.636719 66.730469 51.121094 66.730469 50.484375 C 66.730469 49.851562 66.214844 49.335938 65.578125 49.335938 C 64.945312 49.335938 64.425781 49.851562 64.425781 50.484375 C 64.425781 50.484375 64.425781 50.484375 64.425781 50.488281 C 60.398438 52.246094 56.871094 54.929688 54.160156 58.316406 L 52.363281 56.71875 C 57.714844 50.089844 65.910156 45.835938 75.074219 45.835938 L 75.089844 48.230469 C 75.085938 48.230469 75.078125 48.230469 75.074219 48.230469 C 73.566406 48.230469 72.089844 48.386719 70.648438 48.628906 C 70.441406 48.363281 70.128906 48.183594 69.765625 48.183594 C 69.128906 48.183594 68.613281 48.699219 68.613281 49.335938 C 68.613281 49.96875 69.128906 50.484375 69.765625 50.484375 C 70.261719 50.484375 70.675781 50.171875 70.835938 49.730469 C 72.214844 49.5 73.625 49.351562 75.074219 49.351562 L 75.074219 51.769531 C 69.484375 51.769531 64.363281 53.773438 60.351562 57.074219 C 60.21875 57.023438 60.078125 56.988281 59.929688 56.988281 C 59.296875 56.988281 58.78125 57.503906 58.78125 58.140625 C 58.78125 58.773438 59.296875 59.289062 59.929688 59.289062 C 60.566406 59.289062 61.078125 58.773438 61.078125 58.140625 C 61.078125 58.074219 61.054688 58.015625 61.039062 57.949219 C 64.863281 54.800781 69.746094 52.886719 75.074219 52.886719 L 75.074219 55.269531 C 64.265625 55.269531 55.476562 64.125 55.476562 75.011719 C 55.476562 80.03125 57.34375 84.613281 60.421875 88.105469 L 60.035156 87.65625 L 58.300781 89.410156 C 56.886719 87.761719 55.71875 85.894531 54.835938 83.886719 C 54.988281 83.691406 55.101562 83.449219 55.101562 83.179688 C 55.101562 82.546875 54.585938 82.03125 53.949219 82.03125 C 53.316406 82.03125 52.800781 82.546875 52.800781 83.179688 C 52.800781 83.761719 53.238281 84.226562 53.800781 84.300781 C 54.746094 86.453125 55.988281 88.449219 57.511719 90.203125 L 57.871094 90.609375 C 57.953125 90.699219 58.050781 90.785156 58.136719 90.871094 L 58.28125 91.015625 L 60.785156 88.503906 C 64.363281 92.34375 69.449219 94.75 75.078125 94.75 L 75.078125 97.136719 C 70.464844 97.136719 66.183594 95.695312 62.636719 93.269531 C 62.636719 93.25 62.648438 93.230469 62.648438 93.210938 C 62.648438 92.574219 62.136719 92.058594 61.5 92.058594 C 60.863281 92.058594 60.351562 92.574219 60.351562 93.210938 C 60.351562 93.84375 60.863281 94.359375 61.5 94.359375 C 61.703125 94.359375 61.890625 94.296875 62.054688 94.195312 C 63.496094 95.175781 65.03125 96.03125 66.675781 96.671875 L 65.34375 99.941406 L 65.484375 100.003906 C 65.574219 100.039062 65.671875 100.070312 65.765625 100.109375 L 66.390625 100.335938 C 67.960938 100.875 69.605469 101.230469 71.289062 101.46875 C 71.441406 101.933594 71.859375 102.269531 72.371094 102.269531 C 73.003906 102.269531 73.523438 101.753906 73.523438 101.121094 C 73.523438 100.484375 73.011719 99.96875 72.371094 99.96875 C 72.023438 99.96875 71.726562 100.128906 71.511719 100.375 C 69.894531 100.144531 68.320312 99.804688 66.816406 99.296875 L 67.726562 97.046875 L 67.121094 96.828125 C 69.605469 97.746094 72.285156 98.246094 75.085938 98.246094 L 75.085938 104.179688 C 72.128906 104.179688 69.285156 103.714844 66.59375 102.890625 C 66.449219 102.414062 66.03125 102.066406 65.511719 102.066406 C 64.875 102.066406 64.359375 102.578125 64.359375 103.214844 C 64.359375 103.851562 64.875 104.363281 65.511719 104.363281 C 65.84375 104.363281 66.144531 104.214844 66.355469 103.984375 C 69.125 104.820312 72.050781 105.296875 75.085938 105.296875 C 75.164062 105.296875 75.246094 105.296875 75.328125 105.296875 L 78.125 105.164062 L 78.796875 98.175781 C 80.519531 97.90625 82.183594 97.445312 83.765625 96.824219 L 87.828125 102.460938 L 92.789062 99.523438 L 89.890625 93.285156 C 91.296875 92.164062 92.566406 90.890625 93.683594 89.488281 L 99.921875 92.246094 L 102.574219 87.566406 L 97.304688 83.15625 C 97.890625 81.613281 98.324219 79.996094 98.578125 78.320312 Z M 105.203125 77.808594 "/>
<path style=" stroke:none;fill-rule:nonzero;fill:rgb(85.882353%,5.098039%,8.235294%);fill-opacity:1;" d="M 52.808594 80.238281 C 53.445312 80.238281 53.960938 79.726562 53.960938 79.089844 C 53.960938 78.589844 53.636719 78.175781 53.191406 78.015625 C 53.054688 77.023438 52.964844 76.019531 52.964844 74.996094 C 52.964844 70.253906 54.480469 65.871094 57.023438 62.269531 C 57.066406 62.273438 57.101562 62.289062 57.140625 62.289062 C 57.773438 62.289062 58.289062 61.773438 58.289062 61.140625 C 58.289062 60.503906 57.773438 59.988281 57.140625 59.988281 C 56.503906 59.988281 55.988281 60.503906 55.988281 61.140625 C 55.988281 61.320312 56.035156 61.480469 56.105469 61.628906 C 53.429688 65.414062 51.84375 70.019531 51.84375 74.996094 C 51.84375 76.089844 51.941406 77.160156 52.089844 78.214844 C 51.835938 78.425781 51.660156 78.734375 51.660156 79.089844 C 51.65625 79.726562 52.171875 80.238281 52.808594 80.238281 "/>
<path style=" stroke:none;fill-rule:nonzero;fill:rgb(85.882353%,5.098039%,8.235294%);fill-opacity:1;" d="M 60.613281 99.878906 C 60.433594 99.878906 60.273438 99.925781 60.125 100 C 55.128906 97 51.105469 92.554688 48.628906 87.230469 C 48.78125 87.035156 48.886719 86.804688 48.886719 86.539062 C 48.886719 85.90625 48.371094 85.390625 47.734375 85.390625 C 47.101562 85.390625 46.585938 85.90625 46.585938 86.539062 C 46.585938 87.128906 47.035156 87.59375 47.605469 87.664062 C 50.160156 93.179688 54.320312 97.796875 59.488281 100.921875 C 59.484375 100.960938 59.46875 100.988281 59.46875 101.03125 C 59.46875 101.664062 59.984375 102.179688 60.621094 102.179688 C 61.253906 102.179688 61.769531 101.664062 61.769531 101.03125 C 61.769531 100.394531 61.253906 99.878906 60.613281 99.878906 "/>
<path style=" stroke:none;fill-rule:nonzero;fill:rgb(85.882353%,5.098039%,8.235294%);fill-opacity:1;" d="M 53.359375 62.136719 C 53.359375 61.5 52.84375 60.984375 52.210938 60.984375 C 51.574219 60.984375 51.058594 61.5 51.058594 62.136719 C 51.058594 62.378906 51.15625 62.601562 51.289062 62.789062 C 49.953125 65.375 49.039062 68.195312 48.613281 71.175781 C 48.144531 71.320312 47.800781 71.738281 47.800781 72.261719 C 47.800781 72.894531 48.316406 73.410156 48.949219 73.410156 C 49.585938 73.410156 50.101562 72.894531 50.101562 72.261719 C 50.101562 71.914062 49.945312 71.613281 49.699219 71.40625 C 50.109375 68.511719 50.996094 65.769531 52.289062 63.269531 C 52.886719 63.226562 53.359375 62.738281 53.359375 62.136719 "/>
<path style=" stroke:none;fill-rule:nonzero;fill:rgb(85.882353%,5.098039%,8.235294%);fill-opacity:1;" d="M 75 89.839844 C 66.816406 89.839844 60.15625 83.179688 60.15625 74.996094 C 60.15625 66.808594 66.820312 60.148438 75 60.148438 C 83.183594 60.148438 89.84375 66.808594 89.84375 74.996094 C 89.84375 83.179688 83.191406 89.839844 75 89.839844 M 75 59.019531 C 66.191406 59.019531 59.023438 66.183594 59.023438 74.996094 C 59.023438 83.804688 66.191406 90.96875 75 90.96875 C 83.808594 90.96875 90.976562 83.804688 90.976562 74.996094 C 90.976562 66.183594 83.808594 59.019531 75 59.019531 "/>
</g>
</svg>
